# MagicaVoxel @ Ephtracy

# group
g LShapedRoom3

# material
mtllib LShapedRoom3.mtl
usemtl palette

# normals
vn -1 0 0
vn 1 0 0
vn 0 0 1
vn 0 0 -1
vn 0 -1 0
vn 0 1 0

# texcoords
vt 0.00585938 0.5
vt 0.0410156 0.5
vt 0.986328 0.5

# verts
v -20 20 10
v -20 20 -10
v -20 40 10
v -20 40 -10
v 0 0 10
v 0 0 -10
v 0 20 10
v 0 20 -10
v 18 2 10
v 18 2 -8
v 18 3 10
v 18 3 -8
v 18 5 10
v 18 5 -8
v 18 7 10
v 18 7 -8
v 18 9 10
v 18 9 -8
v 18 11 10
v 18 11 -8
v 18 13 10
v 18 13 -8
v 18 15 10
v 18 15 -8
v 18 17 10
v 18 17 -8
v 18 19 10
v 18 19 -8
v 18 21 10
v 18 21 -8
v 18 23 10
v 18 23 -8
v 18 25 10
v 18 25 -8
v 18 27 10
v 18 27 -8
v 18 29 10
v 18 29 -8
v 18 31 10
v 18 31 -8
v 18 33 10
v 18 33 -8
v 18 35 -8
v 18 36 10
v 18 36 -8
v 18 37 10
v 18 37 -8
v 18 38 10
v 18 38 -8
v -18 22 10
v -18 22 -8
v -18 23 10
v -18 23 -8
v -18 25 10
v -18 25 -8
v -18 27 10
v -18 27 -8
v -18 29 10
v -18 29 -8
v -18 31 10
v -18 31 -8
v -18 33 10
v -18 33 -8
v -18 35 10
v -18 35 -8
v -18 37 10
v -18 37 -8
v -18 38 10
v -18 38 -8
v 2 2 10
v 2 2 -8
v 2 3 10
v 2 3 -8
v 2 5 10
v 2 5 -8
v 2 7 10
v 2 7 -8
v 2 9 10
v 2 9 -8
v 2 11 10
v 2 11 -8
v 2 13 10
v 2 13 -8
v 2 15 10
v 2 15 -8
v 2 17 10
v 2 17 -8
v 2 19 10
v 2 19 -8
v 2 21 10
v 2 21 -8
v 2 22 10
v 2 22 -8
v 20 0 10
v 20 0 -10
v 20 40 10
v 20 40 -10
v -20 20 10
v -20 40 10
v -19 21 10
v -19 23 10
v -19 25 10
v -19 27 10
v -19 29 10
v -19 31 10
v -19 33 10
v -19 35 10
v -19 37 10
v -19 39 10
v -18 22 10
v -18 23 10
v -18 25 10
v -18 27 10
v -18 29 10
v -18 31 10
v -18 33 10
v -18 35 10
v -18 37 10
v -18 38 10
v 0 0 10
v 0 20 10
v 1 1 10
v 1 3 10
v 1 5 10
v 1 7 10
v 1 9 10
v 1 11 10
v 1 13 10
v 1 15 10
v 1 17 10
v 1 19 10
v 1 21 10
v 2 2 10
v 2 3 10
v 2 5 10
v 2 7 10
v 2 9 10
v 2 11 10
v 2 13 10
v 2 15 10
v 2 17 10
v 2 19 10
v 2 21 10
v 2 22 10
v 18 2 10
v 18 3 10
v 18 5 10
v 18 7 10
v 18 9 10
v 18 11 10
v 18 13 10
v 18 15 10
v 18 17 10
v 18 19 10
v 18 21 10
v 18 23 10
v 18 25 10
v 18 27 10
v 18 29 10
v 18 31 10
v 18 33 10
v 18 36 10
v 18 37 10
v 18 38 10
v 19 1 10
v 19 3 10
v 19 5 10
v 19 7 10
v 19 9 10
v 19 11 10
v 19 13 10
v 19 15 10
v 19 17 10
v 19 19 10
v 19 21 10
v 19 23 10
v 19 25 10
v 19 27 10
v 19 29 10
v 19 31 10
v 19 33 10
v 19 36 10
v 19 37 10
v 19 39 10
v 20 0 10
v 20 40 10
v -18 22 -8
v -18 23 -8
v -18 25 -8
v -18 27 -8
v -18 29 -8
v -18 31 -8
v -18 33 -8
v -18 35 -8
v -18 37 -8
v -18 38 -8
v 2 2 -8
v 2 3 -8
v 2 5 -8
v 2 7 -8
v 2 9 -8
v 2 11 -8
v 2 13 -8
v 2 15 -8
v 2 17 -8
v 2 19 -8
v 2 21 -8
v 2 22 -8
v 18 2 -8
v 18 3 -8
v 18 5 -8
v 18 7 -8
v 18 9 -8
v 18 11 -8
v 18 13 -8
v 18 15 -8
v 18 17 -8
v 18 19 -8
v 18 21 -8
v 18 23 -8
v 18 25 -8
v 18 27 -8
v 18 29 -8
v 18 31 -8
v 18 33 -8
v 18 35 -8
v 18 36 -8
v 18 37 -8
v 18 38 -8
v -20 20 -10
v -20 40 -10
v 0 0 -10
v 0 20 -10
v 20 0 -10
v 20 40 -10
v 0 0 10
v 20 0 10
v 0 0 -10
v 20 0 -10
v -20 20 10
v 0 20 10
v -20 20 -10
v 0 20 -10
v -18 38 10
v 18 38 10
v -18 38 -8
v 18 38 -8
v 2 2 10
v 18 2 10
v 2 2 -8
v 18 2 -8
v -18 22 10
v 2 22 10
v -18 22 -8
v 2 22 -8
v -20 40 10
v 20 40 10
v -20 40 -10
v 20 40 -10

# faces
f 3/3/1 2/3/1 1/3/1
f 4/3/1 2/3/1 3/3/1
f 7/3/1 6/3/1 5/3/1
f 8/3/1 6/3/1 7/3/1
f 11/1/1 10/1/1 9/1/1
f 12/1/1 10/1/1 11/1/1
f 13/2/1 12/2/1 11/2/1
f 14/2/1 12/2/1 13/2/1
f 15/1/1 14/1/1 13/1/1
f 16/1/1 14/1/1 15/1/1
f 17/2/1 16/2/1 15/2/1
f 18/2/1 16/2/1 17/2/1
f 19/1/1 18/1/1 17/1/1
f 20/1/1 18/1/1 19/1/1
f 21/2/1 20/2/1 19/2/1
f 22/2/1 20/2/1 21/2/1
f 23/1/1 22/1/1 21/1/1
f 24/1/1 22/1/1 23/1/1
f 25/2/1 24/2/1 23/2/1
f 26/2/1 24/2/1 25/2/1
f 27/1/1 26/1/1 25/1/1
f 28/1/1 26/1/1 27/1/1
f 29/2/1 28/2/1 27/2/1
f 30/2/1 28/2/1 29/2/1
f 31/1/1 30/1/1 29/1/1
f 32/1/1 30/1/1 31/1/1
f 33/2/1 32/2/1 31/2/1
f 34/2/1 32/2/1 33/2/1
f 35/1/1 34/1/1 33/1/1
f 36/1/1 34/1/1 35/1/1
f 37/2/1 36/2/1 35/2/1
f 38/2/1 36/2/1 37/2/1
f 39/1/1 38/1/1 37/1/1
f 40/1/1 38/1/1 39/1/1
f 41/2/1 40/2/1 39/2/1
f 42/2/1 40/2/1 41/2/1
f 43/1/1 42/1/1 41/1/1
f 44/1/1 43/1/1 41/1/1
f 45/1/1 43/1/1 44/1/1
f 46/2/1 45/2/1 44/2/1
f 47/2/1 45/2/1 46/2/1
f 48/1/1 47/1/1 46/1/1
f 49/1/1 47/1/1 48/1/1
f 50/1/2 51/1/2 52/1/2
f 52/1/2 51/1/2 53/1/2
f 52/2/2 53/2/2 54/2/2
f 54/2/2 53/2/2 55/2/2
f 54/1/2 55/1/2 56/1/2
f 56/1/2 55/1/2 57/1/2
f 56/2/2 57/2/2 58/2/2
f 58/2/2 57/2/2 59/2/2
f 58/1/2 59/1/2 60/1/2
f 60/1/2 59/1/2 61/1/2
f 60/2/2 61/2/2 62/2/2
f 62/2/2 61/2/2 63/2/2
f 62/1/2 63/1/2 64/1/2
f 64/1/2 63/1/2 65/1/2
f 64/2/2 65/2/2 66/2/2
f 66/2/2 65/2/2 67/2/2
f 66/1/2 67/1/2 68/1/2
f 68/1/2 67/1/2 69/1/2
f 70/1/2 71/1/2 72/1/2
f 72/1/2 71/1/2 73/1/2
f 72/2/2 73/2/2 74/2/2
f 74/2/2 73/2/2 75/2/2
f 74/1/2 75/1/2 76/1/2
f 76/1/2 75/1/2 77/1/2
f 76/2/2 77/2/2 78/2/2
f 78/2/2 77/2/2 79/2/2
f 78/1/2 79/1/2 80/1/2
f 80/1/2 79/1/2 81/1/2
f 80/2/2 81/2/2 82/2/2
f 82/2/2 81/2/2 83/2/2
f 82/1/2 83/1/2 84/1/2
f 84/1/2 83/1/2 85/1/2
f 84/2/2 85/2/2 86/2/2
f 86/2/2 85/2/2 87/2/2
f 86/1/2 87/1/2 88/1/2
f 88/1/2 87/1/2 89/1/2
f 88/2/2 89/2/2 90/2/2
f 90/2/2 89/2/2 91/2/2
f 90/1/2 91/1/2 92/1/2
f 92/1/2 91/1/2 93/1/2
f 94/3/2 95/3/2 96/3/2
f 96/3/2 95/3/2 97/3/2
f 100/3/3 99/3/3 98/3/3
f 101/3/3 99/3/3 100/3/3
f 102/3/3 99/3/3 101/3/3
f 103/3/3 99/3/3 102/3/3
f 104/3/3 99/3/3 103/3/3
f 105/3/3 99/3/3 104/3/3
f 106/3/3 99/3/3 105/3/3
f 107/3/3 99/3/3 106/3/3
f 108/3/3 99/3/3 107/3/3
f 109/3/3 99/3/3 108/3/3
f 110/1/3 101/1/3 100/1/3
f 111/2/3 102/2/3 101/2/3
f 111/1/3 101/1/3 110/1/3
f 112/1/3 103/1/3 102/1/3
f 112/2/3 102/2/3 111/2/3
f 113/2/3 104/2/3 103/2/3
f 113/1/3 103/1/3 112/1/3
f 114/1/3 105/1/3 104/1/3
f 114/2/3 104/2/3 113/2/3
f 115/2/3 106/2/3 105/2/3
f 115/1/3 105/1/3 114/1/3
f 116/1/3 107/1/3 106/1/3
f 116/2/3 106/2/3 115/2/3
f 117/2/3 108/2/3 107/2/3
f 117/1/3 107/1/3 116/1/3
f 118/1/3 109/1/3 108/1/3
f 118/2/3 108/2/3 117/2/3
f 119/1/3 109/1/3 118/1/3
f 121/3/3 100/3/3 98/3/3
f 122/3/3 121/3/3 120/3/3
f 123/3/3 121/3/3 122/3/3
f 124/3/3 121/3/3 123/3/3
f 125/3/3 121/3/3 124/3/3
f 126/3/3 121/3/3 125/3/3
f 127/3/3 121/3/3 126/3/3
f 128/3/3 121/3/3 127/3/3
f 129/3/3 121/3/3 128/3/3
f 130/3/3 121/3/3 129/3/3
f 131/3/3 121/3/3 130/3/3
f 132/1/3 110/1/3 100/1/3
f 132/3/3 121/3/3 131/3/3
f 132/3/3 100/3/3 121/3/3
f 133/1/3 123/1/3 122/1/3
f 134/2/3 124/2/3 123/2/3
f 134/1/3 123/1/3 133/1/3
f 135/1/3 125/1/3 124/1/3
f 135/2/3 124/2/3 134/2/3
f 136/2/3 126/2/3 125/2/3
f 136/1/3 125/1/3 135/1/3
f 137/1/3 127/1/3 126/1/3
f 137/2/3 126/2/3 136/2/3
f 138/2/3 128/2/3 127/2/3
f 138/1/3 127/1/3 137/1/3
f 139/1/3 129/1/3 128/1/3
f 139/2/3 128/2/3 138/2/3
f 140/2/3 130/2/3 129/2/3
f 140/1/3 129/1/3 139/1/3
f 141/1/3 131/1/3 130/1/3
f 141/2/3 130/2/3 140/2/3
f 142/2/3 132/2/3 131/2/3
f 142/1/3 131/1/3 141/1/3
f 143/1/3 110/1/3 132/1/3
f 143/2/3 132/2/3 142/2/3
f 144/1/3 110/1/3 143/1/3
f 145/1/3 133/1/3 122/1/3
f 164/1/3 109/1/3 119/1/3
f 165/3/3 122/3/3 120/3/3
f 165/1/3 145/1/3 122/1/3
f 165/1/3 146/1/3 145/1/3
f 166/2/3 147/2/3 146/2/3
f 166/1/3 146/1/3 165/1/3
f 167/1/3 148/1/3 147/1/3
f 167/2/3 147/2/3 166/2/3
f 168/2/3 149/2/3 148/2/3
f 168/1/3 148/1/3 167/1/3
f 169/1/3 150/1/3 149/1/3
f 169/2/3 149/2/3 168/2/3
f 170/2/3 151/2/3 150/2/3
f 170/1/3 150/1/3 169/1/3
f 171/1/3 152/1/3 151/1/3
f 171/2/3 151/2/3 170/2/3
f 172/2/3 153/2/3 152/2/3
f 172/1/3 152/1/3 171/1/3
f 173/1/3 154/1/3 153/1/3
f 173/2/3 153/2/3 172/2/3
f 174/2/3 155/2/3 154/2/3
f 174/1/3 154/1/3 173/1/3
f 175/1/3 156/1/3 155/1/3
f 175/2/3 155/2/3 174/2/3
f 176/2/3 157/2/3 156/2/3
f 176/1/3 156/1/3 175/1/3
f 177/1/3 158/1/3 157/1/3
f 177/2/3 157/2/3 176/2/3
f 178/2/3 159/2/3 158/2/3
f 178/1/3 158/1/3 177/1/3
f 179/1/3 160/1/3 159/1/3
f 179/2/3 159/2/3 178/2/3
f 180/2/3 161/2/3 160/2/3
f 180/1/3 160/1/3 179/1/3
f 181/1/3 162/1/3 161/1/3
f 181/2/3 161/2/3 180/2/3
f 182/2/3 163/2/3 162/2/3
f 182/1/3 162/1/3 181/1/3
f 183/1/3 164/1/3 163/1/3
f 183/2/3 163/2/3 182/2/3
f 184/3/3 99/3/3 109/3/3
f 184/1/3 164/1/3 183/1/3
f 184/1/3 109/1/3 164/1/3
f 185/3/3 181/3/3 180/3/3
f 185/3/3 183/3/3 182/3/3
f 185/3/3 184/3/3 183/3/3
f 185/3/3 179/3/3 178/3/3
f 185/3/3 178/3/3 177/3/3
f 185/3/3 177/3/3 176/3/3
f 185/3/3 176/3/3 175/3/3
f 185/3/3 175/3/3 174/3/3
f 185/3/3 174/3/3 173/3/3
f 185/3/3 172/3/3 171/3/3
f 185/3/3 171/3/3 170/3/3
f 185/3/3 170/3/3 169/3/3
f 185/3/3 169/3/3 168/3/3
f 185/3/3 168/3/3 167/3/3
f 185/3/3 167/3/3 166/3/3
f 185/3/3 166/3/3 165/3/3
f 185/3/3 165/3/3 120/3/3
f 185/3/3 173/3/3 172/3/3
f 185/3/3 180/3/3 179/3/3
f 185/3/3 182/3/3 181/3/3
f 186/3/3 99/3/3 184/3/3
f 186/3/3 184/3/3 185/3/3
f 208/1/3 188/1/3 187/1/3
f 209/1/3 198/1/3 197/1/3
f 210/2/3 199/2/3 198/2/3
f 210/1/3 198/1/3 209/1/3
f 211/1/3 200/1/3 199/1/3
f 211/2/3 199/2/3 210/2/3
f 212/2/3 201/2/3 200/2/3
f 212/1/3 200/1/3 211/1/3
f 213/1/3 202/1/3 201/1/3
f 213/2/3 201/2/3 212/2/3
f 214/2/3 203/2/3 202/2/3
f 214/1/3 202/1/3 213/1/3
f 215/1/3 204/1/3 203/1/3
f 215/2/3 203/2/3 214/2/3
f 216/2/3 205/2/3 204/2/3
f 216/1/3 204/1/3 215/1/3
f 217/1/3 206/1/3 205/1/3
f 217/2/3 205/2/3 216/2/3
f 218/2/3 207/2/3 206/2/3
f 218/1/3 206/1/3 217/1/3
f 219/1/3 208/1/3 207/1/3
f 219/2/3 207/2/3 218/2/3
f 220/2/3 189/2/3 188/2/3
f 220/1/3 208/1/3 219/1/3
f 220/1/3 188/1/3 208/1/3
f 221/1/3 190/1/3 189/1/3
f 221/2/3 189/2/3 220/2/3
f 222/2/3 191/2/3 190/2/3
f 222/1/3 190/1/3 221/1/3
f 223/1/3 192/1/3 191/1/3
f 223/2/3 191/2/3 222/2/3
f 224/2/3 193/2/3 192/2/3
f 224/1/3 192/1/3 223/1/3
f 225/1/3 194/1/3 193/1/3
f 225/2/3 193/2/3 224/2/3
f 226/2/3 195/2/3 194/2/3
f 226/1/3 194/1/3 225/1/3
f 227/2/3 195/2/3 226/2/3
f 228/1/3 196/1/3 195/1/3
f 228/2/3 195/2/3 227/2/3
f 229/1/3 196/1/3 228/1/3
f 230/3/4 231/3/4 233/3/4
f 232/3/4 233/3/4 234/3/4
f 233/3/4 231/3/4 235/3/4
f 234/3/4 233/3/4 235/3/4
f 238/3/5 237/3/5 236/3/5
f 239/3/5 237/3/5 238/3/5
f 242/3/5 241/3/5 240/3/5
f 243/3/5 241/3/5 242/3/5
f 246/1/5 245/1/5 244/1/5
f 247/1/5 245/1/5 246/1/5
f 248/1/6 249/1/6 250/1/6
f 250/1/6 249/1/6 251/1/6
f 252/1/6 253/1/6 254/1/6
f 254/1/6 253/1/6 255/1/6
f 256/3/6 257/3/6 258/3/6
f 258/3/6 257/3/6 259/3/6
