# MagicaVoxel @ Ephtracy

# group
g DeluxeRoom

# material
mtllib DeluxeRoom.mtl
usemtl palette

# normals
vn -1 0 0
vn 1 0 0
vn 0 0 1
vn 0 0 -1
vn 0 -1 0
vn 0 1 0

# texcoords
vt 0.00585938 0.5
vt 0.849609 0.5
vt 0.943359 0.5
vt 0.962891 0.5
vt 0.986328 0.5

# verts
v -30 0 10
v -30 0 -10
v -30 40 10
v -30 40 -10
v 28 2 10
v 28 2 -8
v 28 4 8
v 28 4 -6
v 28 6 6
v 28 6 -4
v 28 8 4
v 28 8 -2
v 28 10 2
v 28 10 -0
v 28 30 2
v 28 30 -0
v 28 32 4
v 28 32 -2
v 28 34 6
v 28 34 -4
v 28 36 8
v 28 36 -6
v 28 38 10
v 28 38 -8
v -28 2 10
v -28 2 -8
v -28 4 8
v -28 4 -6
v -28 6 6
v -28 6 -4
v -28 8 4
v -28 8 -2
v -28 10 2
v -28 10 -0
v -28 30 2
v -28 30 -0
v -28 32 4
v -28 32 -2
v -28 34 6
v -28 34 -4
v -28 36 8
v -28 36 -6
v -28 38 10
v -28 38 -8
v 30 0 10
v 30 0 -10
v 30 40 10
v 30 40 -10
v -30 0 10
v -30 40 10
v -29 1 10
v -29 39 10
v -28 1 10
v -28 2 10
v -28 38 10
v -28 39 10
v 28 1 10
v 28 2 10
v 28 38 10
v 28 39 10
v 29 1 10
v 29 39 10
v 30 0 10
v 30 40 10
v -28 2 -8
v -28 38 -8
v -26 4 -8
v -26 36 -8
v -24 6 -8
v -24 34 -8
v -22 8 -8
v -22 32 -8
v -20 10 -8
v -20 30 -8
v 20 10 -8
v 20 30 -8
v 22 8 -8
v 22 32 -8
v 24 6 -8
v 24 34 -8
v 26 4 -8
v 26 36 -8
v 28 2 -8
v 28 38 -8
v -30 0 -10
v -30 40 -10
v 30 0 -10
v 30 40 -10
v -30 0 10
v 30 0 10
v -30 0 -10
v 30 0 -10
v -28 38 10
v 28 38 10
v -28 38 -8
v 28 38 -8
v -28 2 10
v 28 2 10
v -28 2 -8
v 28 2 -8
v -30 40 10
v 30 40 10
v -30 40 -10
v 30 40 -10

# faces
f 3/5/1 2/5/1 1/5/1
f 4/5/1 2/5/1 3/5/1
f 7/2/1 6/2/1 5/2/1
f 8/2/1 6/2/1 7/2/1
f 9/3/1 8/3/1 7/3/1
f 10/3/1 8/3/1 9/3/1
f 11/4/1 10/4/1 9/4/1
f 12/4/1 10/4/1 11/4/1
f 13/3/1 12/3/1 11/3/1
f 14/3/1 12/3/1 13/3/1
f 15/3/1 13/3/1 11/3/1
f 15/2/1 14/2/1 13/2/1
f 16/3/1 12/3/1 14/3/1
f 16/2/1 14/2/1 15/2/1
f 17/4/1 11/4/1 9/4/1
f 17/3/1 15/3/1 11/3/1
f 17/3/1 16/3/1 15/3/1
f 18/3/1 12/3/1 16/3/1
f 18/3/1 16/3/1 17/3/1
f 18/4/1 10/4/1 12/4/1
f 19/3/1 9/3/1 7/3/1
f 19/4/1 17/4/1 9/4/1
f 19/4/1 18/4/1 17/4/1
f 20/4/1 10/4/1 18/4/1
f 20/4/1 18/4/1 19/4/1
f 20/3/1 8/3/1 10/3/1
f 21/2/1 7/2/1 5/2/1
f 21/3/1 19/3/1 7/3/1
f 21/3/1 20/3/1 19/3/1
f 22/3/1 8/3/1 20/3/1
f 22/3/1 20/3/1 21/3/1
f 22/2/1 6/2/1 8/2/1
f 23/2/1 21/2/1 5/2/1
f 23/2/1 22/2/1 21/2/1
f 24/2/1 6/2/1 22/2/1
f 24/2/1 22/2/1 23/2/1
f 25/2/2 26/2/2 27/2/2
f 27/2/2 26/2/2 28/2/2
f 27/3/2 28/3/2 29/3/2
f 29/3/2 28/3/2 30/3/2
f 29/4/2 30/4/2 31/4/2
f 31/4/2 30/4/2 32/4/2
f 31/3/2 32/3/2 33/3/2
f 33/3/2 32/3/2 34/3/2
f 31/3/2 33/3/2 35/3/2
f 33/2/2 34/2/2 35/2/2
f 34/3/2 32/3/2 36/3/2
f 35/2/2 34/2/2 36/2/2
f 29/4/2 31/4/2 37/4/2
f 31/3/2 35/3/2 37/3/2
f 35/3/2 36/3/2 37/3/2
f 36/3/2 32/3/2 38/3/2
f 37/3/2 36/3/2 38/3/2
f 32/4/2 30/4/2 38/4/2
f 27/3/2 29/3/2 39/3/2
f 29/4/2 37/4/2 39/4/2
f 37/4/2 38/4/2 39/4/2
f 38/4/2 30/4/2 40/4/2
f 39/4/2 38/4/2 40/4/2
f 30/3/2 28/3/2 40/3/2
f 25/2/2 27/2/2 41/2/2
f 27/3/2 39/3/2 41/3/2
f 39/3/2 40/3/2 41/3/2
f 40/3/2 28/3/2 42/3/2
f 41/3/2 40/3/2 42/3/2
f 28/2/2 26/2/2 42/2/2
f 25/2/2 41/2/2 43/2/2
f 41/2/2 42/2/2 43/2/2
f 42/2/2 26/2/2 44/2/2
f 43/2/2 42/2/2 44/2/2
f 45/5/2 46/5/2 47/5/2
f 47/5/2 46/5/2 48/5/2
f 51/5/3 50/5/3 49/5/3
f 52/5/3 50/5/3 51/5/3
f 53/5/3 51/5/3 49/5/3
f 53/2/3 52/2/3 51/2/3
f 54/2/3 52/2/3 53/2/3
f 55/2/3 52/2/3 54/2/3
f 56/5/3 50/5/3 52/5/3
f 56/2/3 52/2/3 55/2/3
f 57/5/3 53/5/3 49/5/3
f 57/1/3 54/1/3 53/1/3
f 58/1/3 54/1/3 57/1/3
f 59/1/3 56/1/3 55/1/3
f 60/5/3 50/5/3 56/5/3
f 60/1/3 56/1/3 59/1/3
f 61/2/3 59/2/3 58/2/3
f 61/2/3 58/2/3 57/2/3
f 61/2/3 60/2/3 59/2/3
f 61/5/3 57/5/3 49/5/3
f 62/5/3 50/5/3 60/5/3
f 62/2/3 60/2/3 61/2/3
f 63/5/3 61/5/3 49/5/3
f 63/5/3 62/5/3 61/5/3
f 64/5/3 50/5/3 62/5/3
f 64/5/3 62/5/3 63/5/3
f 67/2/3 66/2/3 65/2/3
f 68/2/3 66/2/3 67/2/3
f 69/3/3 68/3/3 67/3/3
f 70/3/3 68/3/3 69/3/3
f 71/4/3 70/4/3 69/4/3
f 72/4/3 70/4/3 71/4/3
f 73/3/3 72/3/3 71/3/3
f 74/3/3 72/3/3 73/3/3
f 75/3/3 73/3/3 71/3/3
f 75/2/3 74/2/3 73/2/3
f 76/3/3 72/3/3 74/3/3
f 76/2/3 74/2/3 75/2/3
f 77/4/3 71/4/3 69/4/3
f 77/3/3 75/3/3 71/3/3
f 77/3/3 76/3/3 75/3/3
f 78/3/3 72/3/3 76/3/3
f 78/3/3 76/3/3 77/3/3
f 78/4/3 70/4/3 72/4/3
f 79/3/3 69/3/3 67/3/3
f 79/4/3 77/4/3 69/4/3
f 79/4/3 78/4/3 77/4/3
f 80/4/3 70/4/3 78/4/3
f 80/4/3 78/4/3 79/4/3
f 80/3/3 68/3/3 70/3/3
f 81/2/3 67/2/3 65/2/3
f 81/3/3 79/3/3 67/3/3
f 81/3/3 80/3/3 79/3/3
f 82/3/3 68/3/3 80/3/3
f 82/3/3 80/3/3 81/3/3
f 82/2/3 66/2/3 68/2/3
f 83/2/3 81/2/3 65/2/3
f 83/2/3 82/2/3 81/2/3
f 84/2/3 66/2/3 82/2/3
f 84/2/3 82/2/3 83/2/3
f 85/5/4 86/5/4 87/5/4
f 87/5/4 86/5/4 88/5/4
f 91/5/5 90/5/5 89/5/5
f 92/5/5 90/5/5 91/5/5
f 95/1/5 94/1/5 93/1/5
f 96/1/5 94/1/5 95/1/5
f 97/1/6 98/1/6 99/1/6
f 99/1/6 98/1/6 100/1/6
f 101/5/6 102/5/6 103/5/6
f 103/5/6 102/5/6 104/5/6
