# MagicaVoxel @ Ephtracy

# group
g DoubleRoom

# material
mtllib DoubleRoom.mtl
usemtl palette

# normals
vn -1 0 0
vn 1 0 0
vn 0 0 1
vn 0 0 -1
vn 0 -1 0
vn 0 1 0

# texcoords
vt 0.00585938 0.5
vt 0.751953 0.5
vt 0.892578 0.5
vt 0.986328 0.5
vt 0.994141 0.5

# verts
v -20 0 10
v -20 0 -10
v -20 40 10
v -20 40 -10
v 18 2 10
v 18 2 -8
v 18 3 9
v 18 3 1
v 18 3 -1
v 18 3 -7
v 18 9 9
v 18 9 1
v 18 9 -1
v 18 9 -7
v 18 11 9
v 18 11 1
v 18 11 -1
v 18 11 -7
v 18 19 9
v 18 19 1
v 18 19 -1
v 18 19 -7
v 18 21 9
v 18 21 1
v 18 21 -1
v 18 21 -7
v 18 29 9
v 18 29 1
v 18 29 -1
v 18 29 -7
v 18 31 9
v 18 31 1
v 18 31 -1
v 18 31 -7
v 18 37 9
v 18 37 1
v 18 37 -1
v 18 37 -7
v 18 38 10
v 18 38 -8
v -18 2 10
v -18 2 -8
v -18 3 9
v -18 3 1
v -18 3 -1
v -18 3 -7
v -18 9 9
v -18 9 1
v -18 9 -1
v -18 9 -7
v -18 11 9
v -18 11 1
v -18 11 -1
v -18 11 -7
v -18 19 9
v -18 19 1
v -18 19 -1
v -18 19 -7
v -18 21 9
v -18 21 1
v -18 21 -1
v -18 21 -7
v -18 29 9
v -18 29 1
v -18 29 -1
v -18 29 -7
v -18 31 9
v -18 31 1
v -18 31 -1
v -18 31 -7
v -18 37 9
v -18 37 1
v -18 37 -1
v -18 37 -7
v -18 38 10
v -18 38 -8
v 20 0 10
v 20 0 -10
v 20 40 10
v 20 40 -10
v -20 0 10
v -20 40 10
v -19 1 10
v -19 2 10
v -19 38 10
v -19 39 10
v -18 2 10
v -18 38 10
v 18 1 10
v 18 2 10
v 18 38 10
v 19 1 10
v 19 38 10
v 19 39 10
v 20 0 10
v 20 40 10
v -18 2 -8
v -18 38 -8
v -17 3 -8
v -17 9 -8
v -17 11 -8
v -17 19 -8
v -17 21 -8
v -17 29 -8
v -17 31 -8
v -17 37 -8
v -11 3 -8
v -11 9 -8
v -11 11 -8
v -11 19 -8
v -11 21 -8
v -11 29 -8
v -11 31 -8
v -11 37 -8
v -9 3 -8
v -9 9 -8
v -9 11 -8
v -9 19 -8
v -9 21 -8
v -9 29 -8
v -9 31 -8
v -9 37 -8
v -1 3 -8
v -1 9 -8
v -1 11 -8
v -1 19 -8
v -1 21 -8
v -1 29 -8
v -1 31 -8
v -1 37 -8
v 1 3 -8
v 1 9 -8
v 1 11 -8
v 1 19 -8
v 1 21 -8
v 1 29 -8
v 1 31 -8
v 1 37 -8
v 9 3 -8
v 9 9 -8
v 9 11 -8
v 9 19 -8
v 9 21 -8
v 9 29 -8
v 9 31 -8
v 9 37 -8
v 11 3 -8
v 11 9 -8
v 11 11 -8
v 11 19 -8
v 11 21 -8
v 11 29 -8
v 11 31 -8
v 11 37 -8
v 17 3 -8
v 17 9 -8
v 17 11 -8
v 17 19 -8
v 17 21 -8
v 17 29 -8
v 17 31 -8
v 17 37 -8
v 18 2 -8
v 18 38 -8
v -20 0 -10
v -20 40 -10
v 20 0 -10
v 20 40 -10
v -20 0 10
v 20 0 10
v -20 0 -10
v 20 0 -10
v -18 38 10
v 18 38 10
v -18 38 -8
v 18 38 -8
v -18 2 10
v 18 2 10
v -18 2 -8
v 18 2 -8
v -20 40 10
v 20 40 10
v -20 40 -10
v 20 40 -10

# faces
f 3/4/1 2/4/1 1/4/1
f 4/4/1 2/4/1 3/4/1
f 7/5/1 6/5/1 5/5/1
f 8/5/1 6/5/1 7/5/1
f 9/5/1 6/5/1 8/5/1
f 10/5/1 6/5/1 9/5/1
f 11/5/1 7/5/1 5/5/1
f 11/2/1 8/2/1 7/2/1
f 12/5/1 9/5/1 8/5/1
f 12/2/1 8/2/1 11/2/1
f 13/2/1 10/2/1 9/2/1
f 13/5/1 9/5/1 12/5/1
f 14/5/1 6/5/1 10/5/1
f 14/2/1 10/2/1 13/2/1
f 15/5/1 13/5/1 12/5/1
f 15/5/1 12/5/1 11/5/1
f 15/5/1 14/5/1 13/5/1
f 15/5/1 11/5/1 5/5/1
f 16/5/1 14/5/1 15/5/1
f 17/5/1 14/5/1 16/5/1
f 18/5/1 6/5/1 14/5/1
f 18/5/1 14/5/1 17/5/1
f 19/5/1 15/5/1 5/5/1
f 19/2/1 16/2/1 15/2/1
f 20/5/1 17/5/1 16/5/1
f 20/2/1 16/2/1 19/2/1
f 21/2/1 18/2/1 17/2/1
f 21/5/1 17/5/1 20/5/1
f 22/5/1 6/5/1 18/5/1
f 22/2/1 18/2/1 21/2/1
f 23/5/1 19/5/1 5/5/1
f 23/5/1 21/5/1 20/5/1
f 23/5/1 22/5/1 21/5/1
f 23/5/1 20/5/1 19/5/1
f 24/5/1 22/5/1 23/5/1
f 25/5/1 22/5/1 24/5/1
f 26/5/1 6/5/1 22/5/1
f 26/5/1 22/5/1 25/5/1
f 27/5/1 23/5/1 5/5/1
f 27/2/1 24/2/1 23/2/1
f 28/5/1 25/5/1 24/5/1
f 28/2/1 24/2/1 27/2/1
f 29/2/1 26/2/1 25/2/1
f 29/5/1 25/5/1 28/5/1
f 30/5/1 6/5/1 26/5/1
f 30/2/1 26/2/1 29/2/1
f 31/5/1 27/5/1 5/5/1
f 31/5/1 29/5/1 28/5/1
f 31/5/1 30/5/1 29/5/1
f 31/5/1 28/5/1 27/5/1
f 32/5/1 30/5/1 31/5/1
f 33/5/1 30/5/1 32/5/1
f 34/5/1 6/5/1 30/5/1
f 34/5/1 30/5/1 33/5/1
f 35/5/1 31/5/1 5/5/1
f 35/2/1 32/2/1 31/2/1
f 36/5/1 33/5/1 32/5/1
f 36/2/1 32/2/1 35/2/1
f 37/2/1 34/2/1 33/2/1
f 37/5/1 33/5/1 36/5/1
f 38/5/1 6/5/1 34/5/1
f 38/2/1 34/2/1 37/2/1
f 39/5/1 35/5/1 5/5/1
f 39/5/1 37/5/1 36/5/1
f 39/5/1 38/5/1 37/5/1
f 39/5/1 36/5/1 35/5/1
f 40/5/1 6/5/1 38/5/1
f 40/5/1 38/5/1 39/5/1
f 41/5/2 42/5/2 43/5/2
f 43/5/2 42/5/2 44/5/2
f 44/5/2 42/5/2 45/5/2
f 45/5/2 42/5/2 46/5/2
f 41/5/2 43/5/2 47/5/2
f 43/2/2 44/2/2 47/2/2
f 44/5/2 45/5/2 48/5/2
f 47/2/2 44/2/2 48/2/2
f 45/2/2 46/2/2 49/2/2
f 48/5/2 45/5/2 49/5/2
f 46/5/2 42/5/2 50/5/2
f 49/2/2 46/2/2 50/2/2
f 48/5/2 49/5/2 51/5/2
f 47/5/2 48/5/2 51/5/2
f 49/5/2 50/5/2 51/5/2
f 41/5/2 47/5/2 51/5/2
f 51/5/2 50/5/2 52/5/2
f 52/5/2 50/5/2 53/5/2
f 50/5/2 42/5/2 54/5/2
f 53/5/2 50/5/2 54/5/2
f 41/5/2 51/5/2 55/5/2
f 51/2/2 52/2/2 55/2/2
f 52/5/2 53/5/2 56/5/2
f 55/2/2 52/2/2 56/2/2
f 53/2/2 54/2/2 57/2/2
f 56/5/2 53/5/2 57/5/2
f 54/5/2 42/5/2 58/5/2
f 57/2/2 54/2/2 58/2/2
f 41/5/2 55/5/2 59/5/2
f 56/5/2 57/5/2 59/5/2
f 57/5/2 58/5/2 59/5/2
f 55/5/2 56/5/2 59/5/2
f 59/5/2 58/5/2 60/5/2
f 60/5/2 58/5/2 61/5/2
f 58/5/2 42/5/2 62/5/2
f 61/5/2 58/5/2 62/5/2
f 41/5/2 59/5/2 63/5/2
f 59/2/2 60/2/2 63/2/2
f 60/5/2 61/5/2 64/5/2
f 63/2/2 60/2/2 64/2/2
f 61/2/2 62/2/2 65/2/2
f 64/5/2 61/5/2 65/5/2
f 62/5/2 42/5/2 66/5/2
f 65/2/2 62/2/2 66/2/2
f 41/5/2 63/5/2 67/5/2
f 64/5/2 65/5/2 67/5/2
f 65/5/2 66/5/2 67/5/2
f 63/5/2 64/5/2 67/5/2
f 67/5/2 66/5/2 68/5/2
f 68/5/2 66/5/2 69/5/2
f 66/5/2 42/5/2 70/5/2
f 69/5/2 66/5/2 70/5/2
f 41/5/2 67/5/2 71/5/2
f 67/2/2 68/2/2 71/2/2
f 68/5/2 69/5/2 72/5/2
f 71/2/2 68/2/2 72/2/2
f 69/2/2 70/2/2 73/2/2
f 72/5/2 69/5/2 73/5/2
f 70/5/2 42/5/2 74/5/2
f 73/2/2 70/2/2 74/2/2
f 41/5/2 71/5/2 75/5/2
f 72/5/2 73/5/2 75/5/2
f 73/5/2 74/5/2 75/5/2
f 71/5/2 72/5/2 75/5/2
f 74/5/2 42/5/2 76/5/2
f 75/5/2 74/5/2 76/5/2
f 77/4/2 78/4/2 79/4/2
f 79/4/2 78/4/2 80/4/2
f 83/4/3 82/4/3 81/4/3
f 84/4/3 82/4/3 83/4/3
f 85/4/3 82/4/3 84/4/3
f 86/4/3 82/4/3 85/4/3
f 87/1/3 84/1/3 83/1/3
f 87/5/3 85/5/3 84/5/3
f 88/1/3 86/1/3 85/1/3
f 88/5/3 85/5/3 87/5/3
f 89/4/3 83/4/3 81/4/3
f 89/1/3 87/1/3 83/1/3
f 90/1/3 87/1/3 89/1/3
f 91/1/3 86/1/3 88/1/3
f 92/5/3 90/5/3 89/5/3
f 92/5/3 91/5/3 90/5/3
f 92/4/3 89/4/3 81/4/3
f 93/1/3 86/1/3 91/1/3
f 93/5/3 91/5/3 92/5/3
f 94/4/3 82/4/3 86/4/3
f 94/1/3 86/1/3 93/1/3
f 95/4/3 92/4/3 81/4/3
f 95/4/3 93/4/3 92/4/3
f 95/4/3 94/4/3 93/4/3
f 96/4/3 82/4/3 94/4/3
f 96/4/3 94/4/3 95/4/3
f 99/5/3 98/5/3 97/5/3
f 100/5/3 98/5/3 99/5/3
f 101/5/3 98/5/3 100/5/3
f 102/5/3 98/5/3 101/5/3
f 103/5/3 98/5/3 102/5/3
f 104/5/3 98/5/3 103/5/3
f 105/5/3 98/5/3 104/5/3
f 106/5/3 98/5/3 105/5/3
f 107/5/3 99/5/3 97/5/3
f 107/2/3 100/2/3 99/2/3
f 108/5/3 101/5/3 100/5/3
f 108/2/3 100/2/3 107/2/3
f 109/2/3 102/2/3 101/2/3
f 109/5/3 101/5/3 108/5/3
f 110/5/3 103/5/3 102/5/3
f 110/2/3 102/2/3 109/2/3
f 111/2/3 104/2/3 103/2/3
f 111/5/3 103/5/3 110/5/3
f 112/5/3 105/5/3 104/5/3
f 112/2/3 104/2/3 111/2/3
f 113/2/3 106/2/3 105/2/3
f 113/5/3 105/5/3 112/5/3
f 114/5/3 98/5/3 106/5/3
f 114/2/3 106/2/3 113/2/3
f 115/5/3 113/5/3 112/5/3
f 115/5/3 112/5/3 111/5/3
f 115/5/3 114/5/3 113/5/3
f 115/5/3 111/5/3 110/5/3
f 115/5/3 110/5/3 109/5/3
f 115/5/3 109/5/3 108/5/3
f 115/5/3 108/5/3 107/5/3
f 115/5/3 107/5/3 97/5/3
f 116/5/3 114/5/3 115/5/3
f 117/5/3 114/5/3 116/5/3
f 118/5/3 114/5/3 117/5/3
f 119/5/3 114/5/3 118/5/3
f 120/5/3 114/5/3 119/5/3
f 121/5/3 114/5/3 120/5/3
f 122/5/3 98/5/3 114/5/3
f 122/5/3 114/5/3 121/5/3
f 123/5/3 115/5/3 97/5/3
f 123/2/3 116/2/3 115/2/3
f 124/5/3 117/5/3 116/5/3
f 124/2/3 116/2/3 123/2/3
f 125/2/3 118/2/3 117/2/3
f 125/5/3 117/5/3 124/5/3
f 126/5/3 119/5/3 118/5/3
f 126/2/3 118/2/3 125/2/3
f 127/2/3 120/2/3 119/2/3
f 127/5/3 119/5/3 126/5/3
f 128/5/3 121/5/3 120/5/3
f 128/2/3 120/2/3 127/2/3
f 129/2/3 122/2/3 121/2/3
f 129/5/3 121/5/3 128/5/3
f 130/5/3 98/5/3 122/5/3
f 130/2/3 122/2/3 129/2/3
f 131/5/3 127/5/3 126/5/3
f 131/5/3 129/5/3 128/5/3
f 131/5/3 130/5/3 129/5/3
f 131/5/3 126/5/3 125/5/3
f 131/5/3 125/5/3 124/5/3
f 131/5/3 124/5/3 123/5/3
f 131/5/3 123/5/3 97/5/3
f 131/5/3 128/5/3 127/5/3
f 132/5/3 130/5/3 131/5/3
f 133/5/3 130/5/3 132/5/3
f 134/5/3 130/5/3 133/5/3
f 135/5/3 130/5/3 134/5/3
f 136/5/3 130/5/3 135/5/3
f 137/5/3 130/5/3 136/5/3
f 138/5/3 98/5/3 130/5/3
f 138/5/3 130/5/3 137/5/3
f 139/5/3 131/5/3 97/5/3
f 139/2/3 132/2/3 131/2/3
f 140/5/3 133/5/3 132/5/3
f 140/2/3 132/2/3 139/2/3
f 141/2/3 134/2/3 133/2/3
f 141/5/3 133/5/3 140/5/3
f 142/5/3 135/5/3 134/5/3
f 142/2/3 134/2/3 141/2/3
f 143/2/3 136/2/3 135/2/3
f 143/5/3 135/5/3 142/5/3
f 144/5/3 137/5/3 136/5/3
f 144/2/3 136/2/3 143/2/3
f 145/2/3 138/2/3 137/2/3
f 145/5/3 137/5/3 144/5/3
f 146/5/3 98/5/3 138/5/3
f 146/2/3 138/2/3 145/2/3
f 147/5/3 143/5/3 142/5/3
f 147/5/3 145/5/3 144/5/3
f 147/5/3 146/5/3 145/5/3
f 147/5/3 142/5/3 141/5/3
f 147/5/3 141/5/3 140/5/3
f 147/5/3 140/5/3 139/5/3
f 147/5/3 139/5/3 97/5/3
f 147/5/3 144/5/3 143/5/3
f 148/5/3 146/5/3 147/5/3
f 149/5/3 146/5/3 148/5/3
f 150/5/3 146/5/3 149/5/3
f 151/5/3 146/5/3 150/5/3
f 152/5/3 146/5/3 151/5/3
f 153/5/3 146/5/3 152/5/3
f 154/5/3 98/5/3 146/5/3
f 154/5/3 146/5/3 153/5/3
f 155/5/3 147/5/3 97/5/3
f 155/2/3 148/2/3 147/2/3
f 156/5/3 149/5/3 148/5/3
f 156/2/3 148/2/3 155/2/3
f 157/2/3 150/2/3 149/2/3
f 157/5/3 149/5/3 156/5/3
f 158/5/3 151/5/3 150/5/3
f 158/2/3 150/2/3 157/2/3
f 159/2/3 152/2/3 151/2/3
f 159/5/3 151/5/3 158/5/3
f 160/5/3 153/5/3 152/5/3
f 160/2/3 152/2/3 159/2/3
f 161/2/3 154/2/3 153/2/3
f 161/5/3 153/5/3 160/5/3
f 162/5/3 98/5/3 154/5/3
f 162/2/3 154/2/3 161/2/3
f 163/5/3 159/5/3 158/5/3
f 163/5/3 161/5/3 160/5/3
f 163/5/3 162/5/3 161/5/3
f 163/5/3 158/5/3 157/5/3
f 163/5/3 157/5/3 156/5/3
f 163/5/3 156/5/3 155/5/3
f 163/5/3 155/5/3 97/5/3
f 163/5/3 160/5/3 159/5/3
f 164/5/3 98/5/3 162/5/3
f 164/5/3 162/5/3 163/5/3
f 165/4/4 166/4/4 167/4/4
f 167/4/4 166/4/4 168/4/4
f 171/4/5 170/4/5 169/4/5
f 172/4/5 170/4/5 171/4/5
f 175/1/5 174/1/5 173/1/5
f 176/1/5 174/1/5 175/1/5
f 177/1/6 178/1/6 179/1/6
f 179/1/6 178/1/6 180/1/6
f 181/4/6 182/4/6 183/4/6
f 183/4/6 182/4/6 184/4/6
