# MagicaVoxel @ Ephtracy

# group
g Alien

# material
mtllib Alien.mtl
usemtl palette

# normals
vn -1 0 0
vn 1 0 0
vn 0 0 1
vn 0 0 -1
vn 0 -1 0
vn 0 1 0

# texcoords
vt 0.744141 0.5
vt 0.880859 0.5
vt 0.884766 0.5
vt 0.888672 0.5
vt 0.892578 0.5
vt 0.896484 0.5
vt 0.927734 0.5

# verts
v -5 0 2.5
v -5 0 1.5
v -5 0 -0.5
v -5 0 -1.5
v -5 1 2.5
v -5 1 1.5
v -5 1 -0.5
v -5 1 -1.5
v -5 4 1.5
v -5 4 -0.5
v -5 7 2.5
v -5 7 -1.5
v -4 4 3.5
v -4 4 2.5
v -4 4 -1.5
v -4 4 -3.5
v -4 7 2.5
v -4 7 -1.5
v -4 8 3.5
v -4 8 -3.5
v -4 12 0.5
v -4 12 -0.5
v -4 13 0.5
v -4 13 -0.5
v -3 0 -3.5
v -3 0 -4.5
v -3 1 -3.5
v -3 1 -4.5
v -3 4 -3.5
v -3 5 4.5
v -3 5 3.5
v -3 7 4.5
v -3 7 3.5
v -3 8 2.5
v -3 8 -2.5
v -3 8 -3.5
v -3 8 -4.5
v -3 9 2.5
v -3 9 -2.5
v -3 11 0.5
v -3 11 -0.5
v -3 12 0.5
v -3 12 -0.5
v -2 0 4.5
v -2 0 3.5
v -2 0 0.5
v -2 0 -0.5
v -2 1 4.5
v -2 1 3.5
v -2 1 0.5
v -2 1 -0.5
v -2 4 3.5
v -2 4 0.5
v -2 4 -0.5
v -2 5 4.5
v -2 5 3.5
v -2 7 4.5
v -2 7 3.5
v -2 8 4.5
v -2 8 3.5
v -2 9 1.5
v -2 9 -1.5
v -2 10 1.5
v -2 10 0.5
v -2 10 -0.5
v -2 10 -1.5
v -2 11 0.5
v -2 11 -0.5
v 1 0 4.5
v 1 0 3.5
v 1 0 0.5
v 1 0 -0.5
v 1 1 4.5
v 1 1 3.5
v 1 1 0.5
v 1 1 -0.5
v 1 4 4.5
v 1 4 3.5
v 1 4 0.5
v 1 4 -0.5
v 1 11 0.5
v 1 11 -0.5
v 1 12 0.5
v 1 12 -0.5
v 2 0 -3.5
v 2 0 -4.5
v 2 1 -3.5
v 2 1 -4.5
v 2 4 -3.5
v 2 4 -4.5
v 2 12 0.5
v 2 12 -0.5
v 2 13 0.5
v 2 13 -0.5
v 4 0 2.5
v 4 0 1.5
v 4 0 -0.5
v 4 0 -1.5
v 4 1 2.5
v 4 1 1.5
v 4 1 -0.5
v 4 1 -1.5
v 4 4 2.5
v 4 4 1.5
v 4 4 -0.5
v 4 4 -1.5
v -4 0 2.5
v -4 0 1.5
v -4 0 -0.5
v -4 0 -1.5
v -4 1 2.5
v -4 1 1.5
v -4 1 -0.5
v -4 1 -1.5
v -4 4 2.5
v -4 4 1.5
v -4 4 -0.5
v -4 4 -1.5
v -2 0 -3.5
v -2 0 -4.5
v -2 1 -3.5
v -2 1 -4.5
v -2 4 -3.5
v -2 4 -4.5
v -2 12 0.5
v -2 12 -0.5
v -2 13 0.5
v -2 13 -0.5
v -1 0 4.5
v -1 0 3.5
v -1 0 0.5
v -1 0 -0.5
v -1 1 4.5
v -1 1 3.5
v -1 1 0.5
v -1 1 -0.5
v -1 4 4.5
v -1 4 3.5
v -1 4 0.5
v -1 4 -0.5
v -1 11 0.5
v -1 11 -0.5
v -1 12 0.5
v -1 12 -0.5
v 2 0 4.5
v 2 0 3.5
v 2 0 0.5
v 2 0 -0.5
v 2 1 4.5
v 2 1 3.5
v 2 1 0.5
v 2 1 -0.5
v 2 4 3.5
v 2 4 0.5
v 2 4 -0.5
v 2 5 4.5
v 2 5 3.5
v 2 7 4.5
v 2 7 3.5
v 2 8 4.5
v 2 8 3.5
v 2 9 1.5
v 2 9 -1.5
v 2 10 1.5
v 2 10 0.5
v 2 10 -0.5
v 2 10 -1.5
v 2 11 0.5
v 2 11 -0.5
v 3 0 -3.5
v 3 0 -4.5
v 3 1 -3.5
v 3 1 -4.5
v 3 4 -3.5
v 3 5 4.5
v 3 5 3.5
v 3 7 4.5
v 3 7 3.5
v 3 8 2.5
v 3 8 -2.5
v 3 8 -3.5
v 3 8 -4.5
v 3 9 2.5
v 3 9 -2.5
v 3 11 0.5
v 3 11 -0.5
v 3 12 0.5
v 3 12 -0.5
v 4 4 3.5
v 4 4 2.5
v 4 4 -1.5
v 4 4 -3.5
v 4 7 2.5
v 4 7 -1.5
v 4 8 3.5
v 4 8 -3.5
v 4 12 0.5
v 4 12 -0.5
v 4 13 0.5
v 4 13 -0.5
v 5 0 2.5
v 5 0 1.5
v 5 0 -0.5
v 5 0 -1.5
v 5 1 2.5
v 5 1 1.5
v 5 1 -0.5
v 5 1 -1.5
v 5 4 1.5
v 5 4 -0.5
v 5 7 2.5
v 5 7 -1.5
v -3 5 4.5
v -3 7 4.5
v -2 0 4.5
v -2 1 4.5
v -2 5 4.5
v -2 7 4.5
v -2 8 4.5
v -1 0 4.5
v -1 1 4.5
v -1 4 4.5
v -1 5 4.5
v -1 7 4.5
v -1 8 4.5
v 1 0 4.5
v 1 1 4.5
v 1 4 4.5
v 1 5 4.5
v 1 7 4.5
v 1 8 4.5
v 2 0 4.5
v 2 1 4.5
v 2 5 4.5
v 2 7 4.5
v 2 8 4.5
v 3 5 4.5
v 3 7 4.5
v -4 4 3.5
v -4 8 3.5
v -3 5 3.5
v -3 7 3.5
v -2 4 3.5
v -2 5 3.5
v -2 7 3.5
v -2 8 3.5
v 2 4 3.5
v 2 5 3.5
v 2 7 3.5
v 2 8 3.5
v 3 5 3.5
v 3 7 3.5
v 4 4 3.5
v 4 8 3.5
v -5 0 2.5
v -5 1 2.5
v -5 7 2.5
v -4 0 2.5
v -4 1 2.5
v -4 4 2.5
v -4 7 2.5
v -3 8 2.5
v -3 9 2.5
v 3 8 2.5
v 3 9 2.5
v 4 0 2.5
v 4 1 2.5
v 4 4 2.5
v 4 7 2.5
v 5 0 2.5
v 5 1 2.5
v 5 7 2.5
v -2 9 1.5
v -2 10 1.5
v 2 9 1.5
v 2 10 1.5
v -4 12 0.5
v -4 13 0.5
v -3 11 0.5
v -3 12 0.5
v -3 13 0.5
v -2 0 0.5
v -2 1 0.5
v -2 4 0.5
v -2 10 0.5
v -2 11 0.5
v -2 12 0.5
v -2 13 0.5
v -1 0 0.5
v -1 1 0.5
v -1 4 0.5
v -1 10 0.5
v -1 11 0.5
v -1 12 0.5
v 1 0 0.5
v 1 1 0.5
v 1 4 0.5
v 1 10 0.5
v 1 11 0.5
v 1 12 0.5
v 2 0 0.5
v 2 1 0.5
v 2 4 0.5
v 2 10 0.5
v 2 11 0.5
v 2 12 0.5
v 2 13 0.5
v 3 11 0.5
v 3 12 0.5
v 3 13 0.5
v 4 12 0.5
v 4 13 0.5
v -5 0 -0.5
v -5 1 -0.5
v -5 4 -0.5
v -4 0 -0.5
v -4 1 -0.5
v -4 4 -0.5
v 4 0 -0.5
v 4 1 -0.5
v 4 4 -0.5
v 5 0 -0.5
v 5 1 -0.5
v 5 4 -0.5
v -3 0 -3.5
v -3 1 -3.5
v -3 4 -3.5
v -2 0 -3.5
v -2 1 -3.5
v -2 4 -3.5
v 2 0 -3.5
v 2 1 -3.5
v 2 4 -3.5
v 3 0 -3.5
v 3 1 -3.5
v 3 4 -3.5
v -2 0 3.5
v -2 1 3.5
v -2 4 3.5
v -1 0 3.5
v -1 1 3.5
v -1 4 3.5
v 1 0 3.5
v 1 1 3.5
v 1 4 3.5
v 2 0 3.5
v 2 1 3.5
v 2 4 3.5
v -5 0 1.5
v -5 1 1.5
v -5 4 1.5
v -4 0 1.5
v -4 1 1.5
v -4 4 1.5
v 4 0 1.5
v 4 1 1.5
v 4 4 1.5
v 5 0 1.5
v 5 1 1.5
v 5 4 1.5
v -4 12 -0.5
v -4 13 -0.5
v -3 11 -0.5
v -3 12 -0.5
v -3 13 -0.5
v -2 0 -0.5
v -2 1 -0.5
v -2 4 -0.5
v -2 10 -0.5
v -2 11 -0.5
v -2 12 -0.5
v -2 13 -0.5
v -1 0 -0.5
v -1 1 -0.5
v -1 4 -0.5
v -1 10 -0.5
v -1 11 -0.5
v -1 12 -0.5
v 1 0 -0.5
v 1 1 -0.5
v 1 4 -0.5
v 1 10 -0.5
v 1 11 -0.5
v 1 12 -0.5
v 2 0 -0.5
v 2 1 -0.5
v 2 4 -0.5
v 2 10 -0.5
v 2 11 -0.5
v 2 12 -0.5
v 2 13 -0.5
v 3 11 -0.5
v 3 12 -0.5
v 3 13 -0.5
v 4 12 -0.5
v 4 13 -0.5
v -5 0 -1.5
v -5 1 -1.5
v -5 7 -1.5
v -4 0 -1.5
v -4 1 -1.5
v -4 4 -1.5
v -4 7 -1.5
v -2 9 -1.5
v -2 10 -1.5
v 2 9 -1.5
v 2 10 -1.5
v 4 0 -1.5
v 4 1 -1.5
v 4 4 -1.5
v 4 7 -1.5
v 5 0 -1.5
v 5 1 -1.5
v 5 7 -1.5
v -3 8 -2.5
v -3 9 -2.5
v 3 8 -2.5
v 3 9 -2.5
v -4 4 -3.5
v -4 8 -3.5
v -3 4 -3.5
v -3 8 -3.5
v 3 4 -3.5
v 3 8 -3.5
v 4 4 -3.5
v 4 8 -3.5
v -3 0 -4.5
v -3 1 -4.5
v -3 8 -4.5
v -2 0 -4.5
v -2 1 -4.5
v -2 4 -4.5
v 2 0 -4.5
v 2 1 -4.5
v 2 4 -4.5
v 3 0 -4.5
v 3 1 -4.5
v 3 8 -4.5
v -2 0 4.5
v -1 0 4.5
v 1 0 4.5
v 2 0 4.5
v -2 0 3.5
v -1 0 3.5
v 1 0 3.5
v 2 0 3.5
v -5 0 2.5
v -4 0 2.5
v 4 0 2.5
v 5 0 2.5
v -5 0 1.5
v -4 0 1.5
v 4 0 1.5
v 5 0 1.5
v -2 0 0.5
v -1 0 0.5
v 1 0 0.5
v 2 0 0.5
v -5 0 -0.5
v -4 0 -0.5
v -2 0 -0.5
v -1 0 -0.5
v 1 0 -0.5
v 2 0 -0.5
v 4 0 -0.5
v 5 0 -0.5
v -5 0 -1.5
v -4 0 -1.5
v 4 0 -1.5
v 5 0 -1.5
v -3 0 -3.5
v -2 0 -3.5
v 2 0 -3.5
v 3 0 -3.5
v -3 0 -4.5
v -2 0 -4.5
v 2 0 -4.5
v 3 0 -4.5
v -1 4 4.5
v 1 4 4.5
v -4 4 3.5
v -2 4 3.5
v -1 4 3.5
v 1 4 3.5
v 2 4 3.5
v 4 4 3.5
v -4 4 2.5
v 4 4 2.5
v -5 4 1.5
v -4 4 1.5
v 4 4 1.5
v 5 4 1.5
v -2 4 0.5
v -1 4 0.5
v 1 4 0.5
v 2 4 0.5
v -5 4 -0.5
v -4 4 -0.5
v -2 4 -0.5
v -1 4 -0.5
v 1 4 -0.5
v 2 4 -0.5
v 4 4 -0.5
v 5 4 -0.5
v -4 4 -1.5
v 4 4 -1.5
v -4 4 -3.5
v -3 4 -3.5
v -2 4 -3.5
v 2 4 -3.5
v 3 4 -3.5
v 4 4 -3.5
v -2 4 -4.5
v 2 4 -4.5
v -3 5 4.5
v -2 5 4.5
v 2 5 4.5
v 3 5 4.5
v -3 5 3.5
v -2 5 3.5
v 2 5 3.5
v 3 5 3.5
v -3 11 0.5
v -2 11 0.5
v 2 11 0.5
v 3 11 0.5
v -3 11 -0.5
v -2 11 -0.5
v 2 11 -0.5
v 3 11 -0.5
v -4 12 0.5
v -3 12 0.5
v 3 12 0.5
v 4 12 0.5
v -4 12 -0.5
v -3 12 -0.5
v 3 12 -0.5
v 4 12 -0.5
v -3 7 4.5
v -2 7 4.5
v 2 7 4.5
v 3 7 4.5
v -3 7 3.5
v -2 7 3.5
v 2 7 3.5
v 3 7 3.5
v -5 7 2.5
v -4 7 2.5
v 4 7 2.5
v 5 7 2.5
v -5 7 -1.5
v -4 7 -1.5
v 4 7 -1.5
v 5 7 -1.5
v -2 8 4.5
v -1 8 4.5
v 1 8 4.5
v 2 8 4.5
v -4 8 3.5
v -2 8 3.5
v -1 8 3.5
v 1 8 3.5
v 2 8 3.5
v 4 8 3.5
v -3 8 2.5
v 3 8 2.5
v -3 8 -2.5
v 3 8 -2.5
v -4 8 -3.5
v -3 8 -3.5
v 3 8 -3.5
v 4 8 -3.5
v -3 8 -4.5
v 3 8 -4.5
v -3 9 2.5
v 3 9 2.5
v -2 9 1.5
v 2 9 1.5
v -2 9 -1.5
v 2 9 -1.5
v -3 9 -2.5
v 3 9 -2.5
v -2 10 1.5
v 2 10 1.5
v -2 10 0.5
v -1 10 0.5
v 1 10 0.5
v 2 10 0.5
v -2 10 -0.5
v -1 10 -0.5
v 1 10 -0.5
v 2 10 -0.5
v -2 10 -1.5
v 2 10 -1.5
v -1 11 0.5
v 1 11 0.5
v -1 11 -0.5
v 1 11 -0.5
v -2 12 0.5
v -1 12 0.5
v 1 12 0.5
v 2 12 0.5
v -2 12 -0.5
v -1 12 -0.5
v 1 12 -0.5
v 2 12 -0.5
v -4 13 0.5
v -3 13 0.5
v -2 13 0.5
v 2 13 0.5
v 3 13 0.5
v 4 13 0.5
v -4 13 -0.5
v -3 13 -0.5
v -2 13 -0.5
v 2 13 -0.5
v 3 13 -0.5
v 4 13 -0.5

# faces
f 5/5/1 2/5/1 1/5/1
f 6/5/1 2/5/1 5/5/1
f 7/5/1 4/5/1 3/5/1
f 8/5/1 4/5/1 7/5/1
f 9/2/1 6/2/1 5/2/1
f 10/2/1 8/2/1 7/2/1
f 11/2/1 9/2/1 5/2/1
f 11/2/1 10/2/1 9/2/1
f 12/2/1 8/2/1 10/2/1
f 12/2/1 10/2/1 11/2/1
f 17/2/1 14/2/1 13/2/1
f 18/2/1 16/2/1 15/2/1
f 19/2/1 17/2/1 13/2/1
f 19/2/1 18/2/1 17/2/1
f 20/2/1 16/2/1 18/2/1
f 20/2/1 18/2/1 19/2/1
f 23/6/1 22/6/1 21/6/1
f 24/6/1 22/6/1 23/6/1
f 27/5/1 26/5/1 25/5/1
f 28/5/1 26/5/1 27/5/1
f 29/2/1 28/2/1 27/2/1
f 32/7/1 31/7/1 30/7/1
f 33/7/1 31/7/1 32/7/1
f 36/2/1 28/2/1 29/2/1
f 37/2/1 28/2/1 36/2/1
f 38/4/1 35/4/1 34/4/1
f 39/4/1 35/4/1 38/4/1
f 42/3/1 41/3/1 40/3/1
f 43/3/1 41/3/1 42/3/1
f 48/6/1 45/6/1 44/6/1
f 49/6/1 45/6/1 48/6/1
f 50/5/1 47/5/1 46/5/1
f 51/5/1 47/5/1 50/5/1
f 52/4/1 49/4/1 48/4/1
f 53/2/1 51/2/1 50/2/1
f 54/2/1 51/2/1 53/2/1
f 55/4/1 52/4/1 48/4/1
f 56/4/1 52/4/1 55/4/1
f 59/1/1 58/1/1 57/1/1
f 60/1/1 58/1/1 59/1/1
f 63/4/1 62/4/1 61/4/1
f 64/4/1 62/4/1 63/4/1
f 65/4/1 62/4/1 64/4/1
f 66/4/1 62/4/1 65/4/1
f 67/3/1 65/3/1 64/3/1
f 68/3/1 65/3/1 67/3/1
f 73/6/1 70/6/1 69/6/1
f 74/6/1 70/6/1 73/6/1
f 75/5/1 72/5/1 71/5/1
f 76/5/1 72/5/1 75/5/1
f 77/4/1 74/4/1 73/4/1
f 78/4/1 74/4/1 77/4/1
f 79/2/1 76/2/1 75/2/1
f 80/2/1 76/2/1 79/2/1
f 83/5/1 82/5/1 81/5/1
f 84/5/1 82/5/1 83/5/1
f 87/5/1 86/5/1 85/5/1
f 88/5/1 86/5/1 87/5/1
f 89/2/1 88/2/1 87/2/1
f 90/2/1 88/2/1 89/2/1
f 93/5/1 92/5/1 91/5/1
f 94/5/1 92/5/1 93/5/1
f 99/5/1 96/5/1 95/5/1
f 100/5/1 96/5/1 99/5/1
f 101/5/1 98/5/1 97/5/1
f 102/5/1 98/5/1 101/5/1
f 103/2/1 100/2/1 99/2/1
f 104/2/1 100/2/1 103/2/1
f 105/2/1 102/2/1 101/2/1
f 106/2/1 102/2/1 105/2/1
f 107/5/2 108/5/2 111/5/2
f 111/5/2 108/5/2 112/5/2
f 109/5/2 110/5/2 113/5/2
f 113/5/2 110/5/2 114/5/2
f 111/2/2 112/2/2 115/2/2
f 115/2/2 112/2/2 116/2/2
f 113/2/2 114/2/2 117/2/2
f 117/2/2 114/2/2 118/2/2
f 119/5/2 120/5/2 121/5/2
f 121/5/2 120/5/2 122/5/2
f 121/2/2 122/2/2 123/2/2
f 123/2/2 122/2/2 124/2/2
f 125/5/2 126/5/2 127/5/2
f 127/5/2 126/5/2 128/5/2
f 129/6/2 130/6/2 133/6/2
f 133/6/2 130/6/2 134/6/2
f 131/5/2 132/5/2 135/5/2
f 135/5/2 132/5/2 136/5/2
f 133/4/2 134/4/2 137/4/2
f 137/4/2 134/4/2 138/4/2
f 135/2/2 136/2/2 139/2/2
f 139/2/2 136/2/2 140/2/2
f 141/5/2 142/5/2 143/5/2
f 143/5/2 142/5/2 144/5/2
f 145/6/2 146/6/2 149/6/2
f 149/6/2 146/6/2 150/6/2
f 147/5/2 148/5/2 151/5/2
f 151/5/2 148/5/2 152/5/2
f 149/4/2 150/4/2 153/4/2
f 151/2/2 152/2/2 154/2/2
f 154/2/2 152/2/2 155/2/2
f 149/4/2 153/4/2 156/4/2
f 156/4/2 153/4/2 157/4/2
f 158/1/2 159/1/2 160/1/2
f 160/1/2 159/1/2 161/1/2
f 162/4/2 163/4/2 164/4/2
f 164/4/2 163/4/2 165/4/2
f 165/4/2 163/4/2 166/4/2
f 166/4/2 163/4/2 167/4/2
f 165/3/2 166/3/2 168/3/2
f 168/3/2 166/3/2 169/3/2
f 170/5/2 171/5/2 172/5/2
f 172/5/2 171/5/2 173/5/2
f 172/2/2 173/2/2 174/2/2
f 175/7/2 176/7/2 177/7/2
f 177/7/2 176/7/2 178/7/2
f 174/2/2 173/2/2 181/2/2
f 181/2/2 173/2/2 182/2/2
f 179/4/2 180/4/2 183/4/2
f 183/4/2 180/4/2 184/4/2
f 185/3/2 186/3/2 187/3/2
f 187/3/2 186/3/2 188/3/2
f 189/2/2 190/2/2 193/2/2
f 191/2/2 192/2/2 194/2/2
f 189/2/2 193/2/2 195/2/2
f 193/2/2 194/2/2 195/2/2
f 194/2/2 192/2/2 196/2/2
f 195/2/2 194/2/2 196/2/2
f 197/6/2 198/6/2 199/6/2
f 199/6/2 198/6/2 200/6/2
f 201/5/2 202/5/2 205/5/2
f 205/5/2 202/5/2 206/5/2
f 203/5/2 204/5/2 207/5/2
f 207/5/2 204/5/2 208/5/2
f 205/2/2 206/2/2 209/2/2
f 207/2/2 208/2/2 210/2/2
f 205/2/2 209/2/2 211/2/2
f 209/2/2 210/2/2 211/2/2
f 210/2/2 208/2/2 212/2/2
f 211/2/2 210/2/2 212/2/2
f 217/7/3 214/7/3 213/7/3
f 218/7/3 214/7/3 217/7/3
f 220/6/3 216/6/3 215/6/3
f 221/4/3 217/4/3 216/4/3
f 221/6/3 216/6/3 220/6/3
f 222/4/3 217/4/3 221/4/3
f 223/7/3 218/7/3 217/7/3
f 223/4/3 217/4/3 222/4/3
f 224/1/3 219/1/3 218/1/3
f 224/7/3 218/7/3 223/7/3
f 225/1/3 219/1/3 224/1/3
f 228/4/3 223/4/3 222/4/3
f 228/4/3 225/4/3 224/4/3
f 228/4/3 224/4/3 223/4/3
f 229/4/3 225/4/3 228/4/3
f 230/4/3 225/4/3 229/4/3
f 231/4/3 225/4/3 230/4/3
f 232/6/3 227/6/3 226/6/3
f 233/4/3 228/4/3 227/4/3
f 233/6/3 227/6/3 232/6/3
f 233/4/3 229/4/3 228/4/3
f 234/7/3 230/7/3 229/7/3
f 234/4/3 229/4/3 233/4/3
f 235/1/3 231/1/3 230/1/3
f 235/7/3 230/7/3 234/7/3
f 236/1/3 231/1/3 235/1/3
f 237/7/3 235/7/3 234/7/3
f 238/7/3 235/7/3 237/7/3
f 241/2/3 240/2/3 239/2/3
f 242/2/3 240/2/3 241/2/3
f 243/2/3 241/2/3 239/2/3
f 244/2/3 241/2/3 243/2/3
f 245/2/3 240/2/3 242/2/3
f 246/2/3 240/2/3 245/2/3
f 251/2/3 248/2/3 247/2/3
f 252/2/3 250/2/3 249/2/3
f 253/2/3 251/2/3 247/2/3
f 253/2/3 252/2/3 251/2/3
f 254/2/3 250/2/3 252/2/3
f 254/2/3 252/2/3 253/2/3
f 258/5/3 256/5/3 255/5/3
f 259/2/3 257/2/3 256/2/3
f 259/5/3 256/5/3 258/5/3
f 260/2/3 257/2/3 259/2/3
f 261/2/3 257/2/3 260/2/3
f 264/4/3 263/4/3 262/4/3
f 265/4/3 263/4/3 264/4/3
f 270/5/3 267/5/3 266/5/3
f 271/2/3 269/2/3 268/2/3
f 271/5/3 267/5/3 270/5/3
f 271/2/3 268/2/3 267/2/3
f 272/2/3 269/2/3 271/2/3
f 275/4/3 274/4/3 273/4/3
f 276/4/3 274/4/3 275/4/3
f 280/6/3 278/6/3 277/6/3
f 281/6/3 278/6/3 280/6/3
f 286/3/3 280/3/3 279/3/3
f 287/5/3 281/5/3 280/5/3
f 287/3/3 280/3/3 286/3/3
f 288/5/3 281/5/3 287/5/3
f 289/5/3 283/5/3 282/5/3
f 290/2/3 284/2/3 283/2/3
f 290/5/3 283/5/3 289/5/3
f 291/2/3 284/2/3 290/2/3
f 292/3/3 286/3/3 285/3/3
f 293/5/3 287/5/3 286/5/3
f 293/3/3 286/3/3 292/3/3
f 294/5/3 287/5/3 293/5/3
f 298/4/3 293/4/3 292/4/3
f 299/4/3 293/4/3 298/4/3
f 301/5/3 296/5/3 295/5/3
f 302/2/3 297/2/3 296/2/3
f 302/5/3 296/5/3 301/5/3
f 303/2/3 297/2/3 302/2/3
f 304/3/3 299/3/3 298/3/3
f 305/5/3 300/5/3 299/5/3
f 305/3/3 299/3/3 304/3/3
f 306/5/3 300/5/3 305/5/3
f 308/3/3 306/3/3 305/3/3
f 309/5/3 307/5/3 306/5/3
f 309/3/3 306/3/3 308/3/3
f 310/5/3 307/5/3 309/5/3
f 311/6/3 310/6/3 309/6/3
f 312/6/3 310/6/3 311/6/3
f 316/5/3 314/5/3 313/5/3
f 317/2/3 315/2/3 314/2/3
f 317/5/3 314/5/3 316/5/3
f 318/2/3 315/2/3 317/2/3
f 322/5/3 320/5/3 319/5/3
f 323/2/3 321/2/3 320/2/3
f 323/5/3 320/5/3 322/5/3
f 324/2/3 321/2/3 323/2/3
f 328/5/3 326/5/3 325/5/3
f 329/2/3 327/2/3 326/2/3
f 329/5/3 326/5/3 328/5/3
f 330/2/3 327/2/3 329/2/3
f 334/5/3 332/5/3 331/5/3
f 335/2/3 333/2/3 332/2/3
f 335/5/3 332/5/3 334/5/3
f 336/2/3 333/2/3 335/2/3
f 337/6/4 338/6/4 340/6/4
f 338/4/4 339/4/4 341/4/4
f 340/6/4 338/6/4 341/6/4
f 341/4/4 339/4/4 342/4/4
f 343/6/4 344/6/4 346/6/4
f 344/4/4 345/4/4 347/4/4
f 346/6/4 344/6/4 347/6/4
f 347/4/4 345/4/4 348/4/4
f 349/5/4 350/5/4 352/5/4
f 350/2/4 351/2/4 353/2/4
f 352/5/4 350/5/4 353/5/4
f 353/2/4 351/2/4 354/2/4
f 355/5/4 356/5/4 358/5/4
f 356/2/4 357/2/4 359/2/4
f 358/5/4 356/5/4 359/5/4
f 359/2/4 357/2/4 360/2/4
f 361/6/4 362/6/4 364/6/4
f 364/6/4 362/6/4 365/6/4
f 363/3/4 364/3/4 370/3/4
f 364/5/4 365/5/4 371/5/4
f 370/3/4 364/3/4 371/3/4
f 371/5/4 365/5/4 372/5/4
f 366/5/4 367/5/4 373/5/4
f 367/2/4 368/2/4 374/2/4
f 373/5/4 367/5/4 374/5/4
f 374/2/4 368/2/4 375/2/4
f 369/3/4 370/3/4 376/3/4
f 370/5/4 371/5/4 377/5/4
f 376/3/4 370/3/4 377/3/4
f 377/5/4 371/5/4 378/5/4
f 376/4/4 377/4/4 382/4/4
f 382/4/4 377/4/4 383/4/4
f 379/5/4 380/5/4 385/5/4
f 380/2/4 381/2/4 386/2/4
f 385/5/4 380/5/4 386/5/4
f 386/2/4 381/2/4 387/2/4
f 382/3/4 383/3/4 388/3/4
f 383/5/4 384/5/4 389/5/4
f 388/3/4 383/3/4 389/3/4
f 389/5/4 384/5/4 390/5/4
f 389/3/4 390/3/4 392/3/4
f 390/5/4 391/5/4 393/5/4
f 392/3/4 390/3/4 393/3/4
f 393/5/4 391/5/4 394/5/4
f 393/6/4 394/6/4 395/6/4
f 395/6/4 394/6/4 396/6/4
f 397/5/4 398/5/4 400/5/4
f 398/2/4 399/2/4 401/2/4
f 400/5/4 398/5/4 401/5/4
f 401/2/4 399/2/4 402/2/4
f 402/2/4 399/2/4 403/2/4
f 404/4/4 405/4/4 406/4/4
f 406/4/4 405/4/4 407/4/4
f 408/5/4 409/5/4 412/5/4
f 410/2/4 411/2/4 413/2/4
f 412/5/4 409/5/4 413/5/4
f 409/2/4 410/2/4 413/2/4
f 413/2/4 411/2/4 414/2/4
f 415/4/4 416/4/4 417/4/4
f 417/4/4 416/4/4 418/4/4
f 419/2/4 420/2/4 421/2/4
f 421/2/4 420/2/4 422/2/4
f 423/2/4 424/2/4 425/2/4
f 425/2/4 424/2/4 426/2/4
f 427/5/4 428/5/4 430/5/4
f 428/2/4 429/2/4 431/2/4
f 430/5/4 428/5/4 431/5/4
f 431/2/4 429/2/4 432/2/4
f 432/2/4 429/2/4 435/2/4
f 433/5/4 434/5/4 436/5/4
f 434/2/4 435/2/4 437/2/4
f 436/5/4 434/5/4 437/5/4
f 435/2/4 429/2/4 438/2/4
f 437/2/4 435/2/4 438/2/4
f 443/6/5 440/6/5 439/6/5
f 444/6/5 440/6/5 443/6/5
f 445/6/5 442/6/5 441/6/5
f 446/6/5 442/6/5 445/6/5
f 451/5/5 448/5/5 447/5/5
f 452/5/5 448/5/5 451/5/5
f 453/5/5 450/5/5 449/5/5
f 454/5/5 450/5/5 453/5/5
f 461/5/5 456/5/5 455/5/5
f 462/5/5 456/5/5 461/5/5
f 463/5/5 458/5/5 457/5/5
f 464/5/5 458/5/5 463/5/5
f 467/5/5 460/5/5 459/5/5
f 468/5/5 460/5/5 467/5/5
f 469/5/5 466/5/5 465/5/5
f 470/5/5 466/5/5 469/5/5
f 475/5/5 472/5/5 471/5/5
f 476/5/5 472/5/5 475/5/5
f 477/5/5 474/5/5 473/5/5
f 478/5/5 474/5/5 477/5/5
f 483/4/5 480/4/5 479/4/5
f 484/4/5 480/4/5 483/4/5
f 487/2/5 482/2/5 481/2/5
f 487/2/5 486/2/5 485/2/5
f 487/2/5 485/2/5 484/2/5
f 487/2/5 484/2/5 483/2/5
f 487/2/5 483/2/5 482/2/5
f 488/2/5 486/2/5 487/2/5
f 490/2/5 488/2/5 487/2/5
f 491/2/5 488/2/5 490/2/5
f 493/2/5 491/2/5 490/2/5
f 493/2/5 492/2/5 491/2/5
f 493/2/5 490/2/5 489/2/5
f 494/2/5 492/2/5 493/2/5
f 495/2/5 492/2/5 494/2/5
f 496/2/5 492/2/5 495/2/5
f 497/2/5 493/2/5 489/2/5
f 498/2/5 493/2/5 497/2/5
f 499/2/5 493/2/5 498/2/5
f 500/2/5 495/2/5 494/2/5
f 501/2/5 495/2/5 500/2/5
f 502/2/5 492/2/5 496/2/5
f 503/2/5 492/2/5 502/2/5
f 504/2/5 492/2/5 503/2/5
f 505/2/5 501/2/5 500/2/5
f 505/2/5 499/2/5 498/2/5
f 505/2/5 503/2/5 502/2/5
f 505/2/5 502/2/5 501/2/5
f 505/2/5 500/2/5 499/2/5
f 506/2/5 503/2/5 505/2/5
f 507/2/5 506/2/5 505/2/5
f 508/2/5 506/2/5 507/2/5
f 509/2/5 506/2/5 508/2/5
f 510/2/5 506/2/5 509/2/5
f 511/2/5 506/2/5 510/2/5
f 512/2/5 506/2/5 511/2/5
f 513/2/5 510/2/5 509/2/5
f 514/2/5 510/2/5 513/2/5
f 519/7/5 516/7/5 515/7/5
f 520/7/5 516/7/5 519/7/5
f 521/7/5 518/7/5 517/7/5
f 522/7/5 518/7/5 521/7/5
f 527/3/5 524/3/5 523/3/5
f 528/3/5 524/3/5 527/3/5
f 529/3/5 526/3/5 525/3/5
f 530/3/5 526/3/5 529/3/5
f 535/6/5 532/6/5 531/6/5
f 536/6/5 532/6/5 535/6/5
f 537/6/5 534/6/5 533/6/5
f 538/6/5 534/6/5 537/6/5
f 539/7/6 540/7/6 543/7/6
f 543/7/6 540/7/6 544/7/6
f 541/7/6 542/7/6 545/7/6
f 545/7/6 542/7/6 546/7/6
f 547/2/6 548/2/6 551/2/6
f 551/2/6 548/2/6 552/2/6
f 549/2/6 550/2/6 553/2/6
f 553/2/6 550/2/6 554/2/6
f 555/1/6 556/1/6 560/1/6
f 556/4/6 557/4/6 561/4/6
f 560/1/6 556/1/6 561/1/6
f 557/1/6 558/1/6 562/1/6
f 561/4/6 557/4/6 562/4/6
f 562/1/6 558/1/6 563/1/6
f 560/2/6 561/2/6 565/2/6
f 563/2/6 564/2/6 565/2/6
f 562/2/6 563/2/6 565/2/6
f 561/2/6 562/2/6 565/2/6
f 559/2/6 560/2/6 565/2/6
f 565/2/6 564/2/6 566/2/6
f 559/2/6 565/2/6 567/2/6
f 566/2/6 564/2/6 568/2/6
f 559/2/6 567/2/6 569/2/6
f 567/2/6 568/2/6 569/2/6
f 569/2/6 568/2/6 570/2/6
f 568/2/6 564/2/6 571/2/6
f 570/2/6 568/2/6 571/2/6
f 571/2/6 564/2/6 572/2/6
f 570/2/6 571/2/6 573/2/6
f 573/2/6 571/2/6 574/2/6
f 575/4/6 576/4/6 577/4/6
f 577/4/6 576/4/6 578/4/6
f 575/4/6 577/4/6 579/4/6
f 578/4/6 576/4/6 580/4/6
f 575/4/6 579/4/6 581/4/6
f 579/4/6 580/4/6 581/4/6
f 580/4/6 576/4/6 582/4/6
f 581/4/6 580/4/6 582/4/6
f 583/4/6 584/4/6 585/4/6
f 585/4/6 584/4/6 586/4/6
f 586/4/6 584/4/6 587/4/6
f 587/4/6 584/4/6 588/4/6
f 589/4/6 590/4/6 593/4/6
f 591/4/6 592/4/6 593/4/6
f 590/4/6 591/4/6 593/4/6
f 593/4/6 592/4/6 594/4/6
f 595/4/6 596/4/6 597/4/6
f 597/4/6 596/4/6 598/4/6
f 599/5/6 600/5/6 603/5/6
f 603/5/6 600/5/6 604/5/6
f 601/5/6 602/5/6 605/5/6
f 605/5/6 602/5/6 606/5/6
f 607/6/6 608/6/6 613/6/6
f 608/5/6 609/5/6 614/5/6
f 613/6/6 608/6/6 614/6/6
f 614/5/6 609/5/6 615/5/6
f 610/5/6 611/5/6 616/5/6
f 611/6/6 612/6/6 617/6/6
f 616/5/6 611/5/6 617/5/6
f 617/6/6 612/6/6 618/6/6
