# MagicaVoxel @ Ephtracy

# group
g LShapedRoom4

# material
mtllib LShapedRoom4.mtl
usemtl palette

# normals
vn -1 0 0
vn 1 0 0
vn 0 0 1
vn 0 0 -1
vn 0 -1 0
vn 0 1 0

# texcoords
vt 0.00585938 0.5
vt 0.0917969 0.5
vt 0.580078 0.5
vt 0.986328 0.5

# verts
v -20 0 10
v -20 0 -10
v -20 40 10
v -20 40 -10
v -2 2 10
v -2 2 3
v -2 2 -8
v -2 5 4
v -2 5 3
v -2 7 5
v -2 7 4
v -2 8 7
v -2 8 5
v -2 9 10
v -2 9 7
v -2 13 2
v -2 13 -1
v -2 14 3
v -2 14 2
v -2 14 -1
v -2 14 -2
v -2 15 4
v -2 15 3
v -2 15 -2
v -2 15 -3
v -2 16 -6
v -2 16 -8
v -2 17 -5
v -2 17 -6
v -2 17 -8
v -2 18 4
v -2 18 3
v -2 18 -2
v -2 18 -3
v -2 19 3
v -2 19 2
v -2 19 -1
v -2 19 -2
v -2 20 2
v -2 20 -1
v -2 20 -5
v -2 20 -6
v -2 21 10
v -2 21 -6
v -2 21 -8
v -2 22 10
v -2 22 -8
v 18 22 10
v 18 22 -8
v 18 24 9
v 18 24 6
v 18 24 -8
v 18 25 10
v 18 25 9
v 18 25 6
v 18 25 5
v 18 26 5
v 18 26 4
v 18 29 5
v 18 29 4
v 18 30 10
v 18 30 9
v 18 30 6
v 18 30 5
v 18 31 9
v 18 31 6
v 18 35 2
v 18 35 -1
v 18 36 3
v 18 36 2
v 18 36 -1
v 18 36 -2
v 18 38 10
v 18 38 3
v 18 38 -2
v 18 38 -8
v -18 2 10
v -18 2 2
v -18 2 -8
v -18 3 2
v -18 3 1
v -18 5 -8
v -18 8 2
v -18 8 1
v -18 10 3
v -18 10 2
v -18 10 -8
v -18 11 5
v -18 11 3
v -18 11 -7
v -18 11 -8
v -18 12 10
v -18 12 5
v -18 12 -5
v -18 12 -7
v -18 13 -4
v -18 13 -5
v -18 14 -3
v -18 14 -4
v -18 19 -3
v -18 19 -4
v -18 20 1
v -18 20 -2
v -18 20 -4
v -18 20 -5
v -18 21 2
v -18 21 1
v -18 21 -2
v -18 21 -3
v -18 21 -5
v -18 21 -8
v -18 24 2
v -18 24 1
v -18 24 -2
v -18 24 -3
v -18 25 1
v -18 25 -2
v -18 30 9
v -18 30 6
v -18 31 10
v -18 31 9
v -18 31 6
v -18 31 5
v -18 32 5
v -18 32 4
v -18 34 -6
v -18 34 -8
v -18 35 5
v -18 35 4
v -18 35 -5
v -18 35 -6
v -18 36 10
v -18 36 9
v -18 36 6
v -18 36 5
v -18 36 -4
v -18 36 -5
v -18 37 9
v -18 37 6
v -18 38 10
v -18 38 -4
v -18 38 -8
v 0 0 10
v 0 0 -10
v 0 20 10
v 0 20 -10
v 20 20 10
v 20 20 -10
v 20 40 10
v 20 40 -10
v -20 0 10
v -20 40 10
v -19 1 10
v -19 2 10
v -19 12 10
v -19 31 10
v -19 36 10
v -19 38 10
v -19 39 10
v -18 2 10
v -18 12 10
v -18 31 10
v -18 36 10
v -18 38 10
v -2 2 10
v -2 9 10
v -2 21 10
v -2 22 10
v -1 1 10
v -1 2 10
v -1 9 10
v -1 21 10
v 0 0 10
v 0 20 10
v 18 22 10
v 18 25 10
v 18 30 10
v 18 38 10
v 19 21 10
v 19 22 10
v 19 25 10
v 19 30 10
v 19 38 10
v 19 39 10
v 20 20 10
v 20 40 10
v -18 2 -8
v -18 5 -8
v -18 10 -8
v -18 11 -8
v -18 21 -8
v -18 34 -8
v -18 38 -8
v -16 34 -8
v -16 35 -8
v -15 4 -8
v -15 5 -8
v -15 35 -8
v -15 36 -8
v -14 2 -8
v -14 4 -8
v -14 28 -8
v -14 31 -8
v -14 36 -8
v -14 38 -8
v -13 10 -8
v -13 11 -8
v -13 20 -8
v -13 21 -8
v -13 27 -8
v -13 28 -8
v -13 31 -8
v -13 32 -8
v -12 11 -8
v -12 12 -8
v -12 19 -8
v -12 20 -8
v -12 26 -8
v -12 27 -8
v -12 32 -8
v -12 33 -8
v -11 12 -8
v -11 13 -8
v -11 18 -8
v -11 19 -8
v -10 13 -8
v -10 18 -8
v -9 26 -8
v -9 27 -8
v -9 32 -8
v -9 33 -8
v -8 5 -8
v -8 8 -8
v -8 27 -8
v -8 28 -8
v -8 31 -8
v -8 32 -8
v -7 4 -8
v -7 5 -8
v -7 8 -8
v -7 9 -8
v -7 28 -8
v -7 31 -8
v -7 34 -8
v -7 37 -8
v -6 33 -8
v -6 34 -8
v -6 37 -8
v -6 38 -8
v -5 19 -8
v -5 22 -8
v -4 4 -8
v -4 5 -8
v -4 8 -8
v -4 9 -8
v -4 18 -8
v -4 19 -8
v -4 22 -8
v -4 23 -8
v -3 5 -8
v -3 8 -8
v -3 17 -8
v -3 18 -8
v -3 33 -8
v -3 34 -8
v -3 37 -8
v -3 38 -8
v -2 2 -8
v -2 16 -8
v -2 17 -8
v -2 21 -8
v -2 22 -8
v -2 34 -8
v -2 37 -8
v -1 22 -8
v -1 23 -8
v 1 27 -8
v 1 30 -8
v 2 26 -8
v 2 27 -8
v 2 30 -8
v 2 31 -8
v 3 25 -8
v 3 26 -8
v 3 31 -8
v 3 32 -8
v 6 25 -8
v 6 26 -8
v 6 31 -8
v 6 32 -8
v 7 26 -8
v 7 27 -8
v 7 30 -8
v 7 31 -8
v 8 27 -8
v 8 30 -8
v 12 36 -8
v 12 38 -8
v 13 22 -8
v 13 24 -8
v 13 35 -8
v 13 36 -8
v 14 24 -8
v 14 25 -8
v 16 35 -8
v 16 36 -8
v 17 24 -8
v 17 25 -8
v 17 36 -8
v 17 38 -8
v 18 22 -8
v 18 24 -8
v 18 38 -8
v -20 0 -10
v -20 40 -10
v 0 0 -10
v 0 20 -10
v 20 20 -10
v 20 40 -10
v -20 0 10
v 0 0 10
v -20 0 -10
v 0 0 -10
v 0 20 10
v 20 20 10
v 0 20 -10
v 20 20 -10
v -18 38 10
v 18 38 10
v 18 38 3
v 18 38 -2
v -18 38 -4
v -18 38 -8
v -14 38 -8
v -6 38 -8
v -3 38 -8
v 12 38 -8
v 17 38 -8
v 18 38 -8
v -18 2 10
v -2 2 10
v -2 2 3
v -18 2 2
v -18 2 -8
v -14 2 -8
v -2 2 -8
v -2 22 10
v 18 22 10
v -2 22 -8
v -1 22 -8
v 13 22 -8
v 18 22 -8
v -20 40 10
v 20 40 10
v -20 40 -10
v 20 40 -10

# faces
f 3/4/1 2/4/1 1/4/1
f 4/4/1 2/4/1 3/4/1
f 8/3/1 6/3/1 5/3/1
f 9/2/1 7/2/1 6/2/1
f 9/3/1 6/3/1 8/3/1
f 10/3/1 8/3/1 5/3/1
f 11/2/1 9/2/1 8/2/1
f 11/3/1 8/3/1 10/3/1
f 12/3/1 10/3/1 5/3/1
f 13/2/1 11/2/1 10/2/1
f 13/3/1 10/3/1 12/3/1
f 14/3/1 12/3/1 5/3/1
f 15/2/1 13/2/1 12/2/1
f 15/3/1 12/3/1 14/3/1
f 16/2/1 7/2/1 9/2/1
f 16/2/1 13/2/1 15/2/1
f 16/2/1 15/2/1 14/2/1
f 16/2/1 9/2/1 11/2/1
f 16/2/1 11/2/1 13/2/1
f 17/2/1 7/2/1 16/2/1
f 18/2/1 16/2/1 14/2/1
f 19/3/1 17/3/1 16/3/1
f 19/2/1 16/2/1 18/2/1
f 20/2/1 7/2/1 17/2/1
f 20/3/1 17/3/1 19/3/1
f 21/2/1 7/2/1 20/2/1
f 22/2/1 18/2/1 14/2/1
f 23/3/1 19/3/1 18/3/1
f 23/2/1 18/2/1 22/2/1
f 23/3/1 20/3/1 19/3/1
f 23/3/1 21/3/1 20/3/1
f 24/2/1 7/2/1 21/2/1
f 24/3/1 21/3/1 23/3/1
f 25/2/1 7/2/1 24/2/1
f 26/2/1 7/2/1 25/2/1
f 27/2/1 7/2/1 26/2/1
f 28/2/1 26/2/1 25/2/1
f 29/3/1 27/3/1 26/3/1
f 29/2/1 26/2/1 28/2/1
f 30/3/1 27/3/1 29/3/1
f 31/2/1 22/2/1 14/2/1
f 31/3/1 23/3/1 22/3/1
f 31/3/1 24/3/1 23/3/1
f 31/3/1 25/3/1 24/3/1
f 32/3/1 25/3/1 31/3/1
f 33/3/1 25/3/1 32/3/1
f 34/2/1 28/2/1 25/2/1
f 34/3/1 25/3/1 33/3/1
f 35/3/1 33/3/1 32/3/1
f 35/2/1 32/2/1 31/2/1
f 36/3/1 33/3/1 35/3/1
f 37/3/1 33/3/1 36/3/1
f 38/2/1 34/2/1 33/2/1
f 38/3/1 33/3/1 37/3/1
f 39/3/1 37/3/1 36/3/1
f 39/2/1 36/2/1 35/2/1
f 40/2/1 38/2/1 37/2/1
f 40/3/1 37/3/1 39/3/1
f 41/3/1 30/3/1 29/3/1
f 41/2/1 38/2/1 40/2/1
f 41/3/1 29/3/1 28/3/1
f 41/2/1 28/2/1 34/2/1
f 41/2/1 34/2/1 38/2/1
f 42/3/1 30/3/1 41/3/1
f 43/2/1 40/2/1 39/2/1
f 43/2/1 39/2/1 35/2/1
f 43/2/1 42/2/1 41/2/1
f 43/2/1 41/2/1 40/2/1
f 43/2/1 31/2/1 14/2/1
f 43/2/1 35/2/1 31/2/1
f 44/3/1 30/3/1 42/3/1
f 44/2/1 42/2/1 43/2/1
f 45/3/1 30/3/1 44/3/1
f 46/1/1 44/1/1 43/1/1
f 46/1/1 45/1/1 44/1/1
f 47/1/1 45/1/1 46/1/1
f 50/2/1 49/2/1 48/2/1
f 51/2/1 49/2/1 50/2/1
f 52/2/1 49/2/1 51/2/1
f 53/2/1 50/2/1 48/2/1
f 54/3/1 51/3/1 50/3/1
f 54/2/1 50/2/1 53/2/1
f 55/2/1 52/2/1 51/2/1
f 55/3/1 51/3/1 54/3/1
f 56/2/1 52/2/1 55/2/1
f 57/3/1 54/3/1 53/3/1
f 57/2/1 52/2/1 56/2/1
f 57/3/1 56/3/1 55/3/1
f 57/3/1 55/3/1 54/3/1
f 58/2/1 52/2/1 57/2/1
f 59/3/1 57/3/1 53/3/1
f 59/3/1 58/3/1 57/3/1
f 60/2/1 52/2/1 58/2/1
f 60/3/1 58/3/1 59/3/1
f 61/3/1 59/3/1 53/3/1
f 62/3/1 59/3/1 61/3/1
f 63/3/1 59/3/1 62/3/1
f 64/2/1 60/2/1 59/2/1
f 64/3/1 59/3/1 63/3/1
f 65/3/1 63/3/1 62/3/1
f 65/2/1 62/2/1 61/2/1
f 66/2/1 64/2/1 63/2/1
f 66/3/1 63/3/1 65/3/1
f 67/2/1 52/2/1 60/2/1
f 67/2/1 64/2/1 66/2/1
f 67/2/1 66/2/1 65/2/1
f 67/2/1 60/2/1 64/2/1
f 68/2/1 52/2/1 67/2/1
f 69/2/1 67/2/1 65/2/1
f 70/3/1 68/3/1 67/3/1
f 70/2/1 67/2/1 69/2/1
f 71/2/1 52/2/1 68/2/1
f 71/3/1 68/3/1 70/3/1
f 72/2/1 52/2/1 71/2/1
f 73/2/1 65/2/1 61/2/1
f 73/2/1 69/2/1 65/2/1
f 74/3/1 70/3/1 69/3/1
f 74/2/1 69/2/1 73/2/1
f 74/3/1 72/3/1 71/3/1
f 74/3/1 71/3/1 70/3/1
f 75/2/1 52/2/1 72/2/1
f 75/3/1 72/3/1 74/3/1
f 76/2/1 52/2/1 75/2/1
f 77/3/2 78/3/2 80/3/2
f 78/2/2 79/2/2 80/2/2
f 80/2/2 79/2/2 81/2/2
f 81/2/2 79/2/2 82/2/2
f 77/3/2 80/3/2 83/3/2
f 80/3/2 81/3/2 83/3/2
f 81/2/2 82/2/2 84/2/2
f 83/3/2 81/3/2 84/3/2
f 77/3/2 83/3/2 85/3/2
f 83/2/2 84/2/2 86/2/2
f 85/3/2 83/3/2 86/3/2
f 84/2/2 82/2/2 87/2/2
f 86/2/2 84/2/2 87/2/2
f 77/3/2 85/3/2 88/3/2
f 85/2/2 86/2/2 89/2/2
f 88/3/2 85/3/2 89/3/2
f 86/2/2 87/2/2 89/2/2
f 89/2/2 87/2/2 90/2/2
f 90/2/2 87/2/2 91/2/2
f 77/3/2 88/3/2 92/3/2
f 88/2/2 89/2/2 93/2/2
f 92/3/2 88/3/2 93/3/2
f 89/2/2 90/2/2 93/2/2
f 93/2/2 90/2/2 94/2/2
f 90/3/2 91/3/2 95/3/2
f 94/2/2 90/2/2 95/2/2
f 93/2/2 94/2/2 96/2/2
f 92/2/2 93/2/2 96/2/2
f 94/3/2 95/3/2 97/3/2
f 96/2/2 94/2/2 97/2/2
f 92/2/2 96/2/2 98/2/2
f 96/3/2 97/3/2 99/3/2
f 98/2/2 96/2/2 99/2/2
f 92/2/2 98/2/2 100/2/2
f 98/3/2 99/3/2 100/3/2
f 99/3/2 97/3/2 101/3/2
f 100/3/2 99/3/2 101/3/2
f 92/2/2 100/2/2 102/2/2
f 100/2/2 101/2/2 102/2/2
f 102/2/2 101/2/2 103/2/2
f 101/3/2 97/3/2 104/3/2
f 103/2/2 101/2/2 104/2/2
f 97/3/2 95/3/2 105/3/2
f 104/3/2 97/3/2 105/3/2
f 92/2/2 102/2/2 106/2/2
f 102/3/2 103/3/2 107/3/2
f 106/2/2 102/2/2 107/2/2
f 103/2/2 104/2/2 108/2/2
f 107/3/2 103/3/2 108/3/2
f 104/2/2 105/2/2 108/2/2
f 108/2/2 105/2/2 109/2/2
f 105/3/2 95/3/2 110/3/2
f 109/2/2 105/2/2 110/2/2
f 95/3/2 91/3/2 111/3/2
f 110/3/2 95/3/2 111/3/2
f 106/3/2 107/3/2 112/3/2
f 92/2/2 106/2/2 112/2/2
f 108/3/2 109/3/2 112/3/2
f 107/3/2 108/3/2 112/3/2
f 112/3/2 109/3/2 113/3/2
f 113/3/2 109/3/2 114/3/2
f 109/2/2 110/2/2 115/2/2
f 114/3/2 109/3/2 115/3/2
f 110/2/2 111/2/2 115/2/2
f 113/3/2 114/3/2 116/3/2
f 112/2/2 113/2/2 116/2/2
f 114/2/2 115/2/2 117/2/2
f 116/3/2 114/3/2 117/3/2
f 112/2/2 116/2/2 118/2/2
f 92/2/2 112/2/2 118/2/2
f 116/2/2 117/2/2 118/2/2
f 118/2/2 117/2/2 119/2/2
f 92/2/2 118/2/2 120/2/2
f 118/3/2 119/3/2 121/3/2
f 120/2/2 118/2/2 121/2/2
f 119/2/2 117/2/2 122/2/2
f 121/3/2 119/3/2 122/3/2
f 122/2/2 117/2/2 123/2/2
f 120/3/2 121/3/2 124/3/2
f 123/2/2 117/2/2 124/2/2
f 122/3/2 123/3/2 124/3/2
f 121/3/2 122/3/2 124/3/2
f 124/2/2 117/2/2 125/2/2
f 115/2/2 111/2/2 126/2/2
f 125/2/2 117/2/2 126/2/2
f 117/2/2 115/2/2 126/2/2
f 126/2/2 111/2/2 127/2/2
f 124/3/2 125/3/2 128/3/2
f 120/3/2 124/3/2 128/3/2
f 125/2/2 126/2/2 129/2/2
f 128/3/2 125/3/2 129/3/2
f 129/2/2 126/2/2 130/2/2
f 126/3/2 127/3/2 131/3/2
f 130/2/2 126/2/2 131/2/2
f 120/3/2 128/3/2 132/3/2
f 132/3/2 128/3/2 133/3/2
f 133/3/2 128/3/2 134/3/2
f 129/2/2 130/2/2 135/2/2
f 134/3/2 128/3/2 135/3/2
f 128/2/2 129/2/2 135/2/2
f 135/2/2 130/2/2 136/2/2
f 130/3/2 131/3/2 137/3/2
f 136/2/2 130/2/2 137/2/2
f 133/3/2 134/3/2 138/3/2
f 132/2/2 133/2/2 138/2/2
f 135/2/2 136/2/2 139/2/2
f 138/3/2 134/3/2 139/3/2
f 134/2/2 135/2/2 139/2/2
f 132/2/2 138/2/2 140/2/2
f 138/2/2 139/2/2 140/2/2
f 136/3/2 137/3/2 141/3/2
f 140/2/2 139/2/2 141/2/2
f 139/2/2 136/2/2 141/2/2
f 137/3/2 131/3/2 142/3/2
f 141/3/2 137/3/2 142/3/2
f 131/3/2 127/3/2 142/3/2
f 143/4/2 144/4/2 145/4/2
f 145/4/2 144/4/2 146/4/2
f 147/4/2 148/4/2 149/4/2
f 149/4/2 148/4/2 150/4/2
f 153/4/3 152/4/3 151/4/3
f 154/4/3 152/4/3 153/4/3
f 155/4/3 152/4/3 154/4/3
f 156/4/3 152/4/3 155/4/3
f 157/4/3 152/4/3 156/4/3
f 158/4/3 152/4/3 157/4/3
f 159/4/3 152/4/3 158/4/3
f 160/1/3 154/1/3 153/1/3
f 160/3/3 155/3/3 154/3/3
f 161/2/3 156/2/3 155/2/3
f 161/3/3 155/3/3 160/3/3
f 162/3/3 157/3/3 156/3/3
f 162/2/3 156/2/3 161/2/3
f 163/2/3 158/2/3 157/2/3
f 163/3/3 157/3/3 162/3/3
f 164/1/3 159/1/3 158/1/3
f 164/2/3 158/2/3 163/2/3
f 165/1/3 160/1/3 153/1/3
f 169/4/3 153/4/3 151/4/3
f 169/1/3 165/1/3 153/1/3
f 170/3/3 166/3/3 165/3/3
f 170/1/3 165/1/3 169/1/3
f 171/2/3 167/2/3 166/2/3
f 171/3/3 166/3/3 170/3/3
f 172/1/3 168/1/3 167/1/3
f 172/2/3 167/2/3 171/2/3
f 173/4/3 171/4/3 170/4/3
f 173/4/3 170/4/3 169/4/3
f 173/4/3 172/4/3 171/4/3
f 173/4/3 169/4/3 151/4/3
f 174/4/3 172/4/3 173/4/3
f 175/1/3 168/1/3 172/1/3
f 178/1/3 159/1/3 164/1/3
f 179/4/3 172/4/3 174/4/3
f 179/1/3 175/1/3 172/1/3
f 180/2/3 176/2/3 175/2/3
f 180/1/3 175/1/3 179/1/3
f 181/3/3 177/3/3 176/3/3
f 181/2/3 176/2/3 180/2/3
f 182/2/3 178/2/3 177/2/3
f 182/3/3 177/3/3 181/3/3
f 183/1/3 159/1/3 178/1/3
f 183/2/3 178/2/3 182/2/3
f 184/4/3 152/4/3 159/4/3
f 184/1/3 159/1/3 183/1/3
f 185/4/3 181/4/3 180/4/3
f 185/4/3 183/4/3 182/4/3
f 185/4/3 184/4/3 183/4/3
f 185/4/3 180/4/3 179/4/3
f 185/4/3 179/4/3 174/4/3
f 185/4/3 182/4/3 181/4/3
f 186/4/3 152/4/3 184/4/3
f 186/4/3 184/4/3 185/4/3
f 194/2/3 192/2/3 191/2/3
f 194/3/3 193/3/3 192/3/3
f 195/3/3 193/3/3 194/3/3
f 196/3/3 188/3/3 187/3/3
f 197/2/3 189/2/3 188/2/3
f 197/3/3 188/3/3 196/3/3
f 198/3/3 193/3/3 195/3/3
f 198/2/3 195/2/3 194/2/3
f 199/3/3 193/3/3 198/3/3
f 200/3/3 196/3/3 187/3/3
f 201/2/3 197/2/3 196/2/3
f 201/3/3 196/3/3 200/3/3
f 202/2/3 194/2/3 191/2/3
f 202/2/3 198/2/3 194/2/3
f 202/2/3 199/2/3 198/2/3
f 203/2/3 199/2/3 202/2/3
f 204/3/3 193/3/3 199/3/3
f 204/2/3 199/2/3 203/2/3
f 205/3/3 193/3/3 204/3/3
f 206/2/3 189/2/3 197/2/3
f 206/3/3 190/3/3 189/3/3
f 206/3/3 191/3/3 190/3/3
f 206/2/3 197/2/3 201/2/3
f 206/2/3 201/2/3 200/2/3
f 207/3/3 191/3/3 206/3/3
f 208/3/3 191/3/3 207/3/3
f 209/2/3 202/2/3 191/2/3
f 209/3/3 191/3/3 208/3/3
f 210/2/3 202/2/3 209/2/3
f 211/3/3 203/3/3 202/3/3
f 211/2/3 202/2/3 210/2/3
f 212/2/3 205/2/3 204/2/3
f 212/3/3 203/3/3 211/3/3
f 212/2/3 204/2/3 203/2/3
f 213/2/3 205/2/3 212/2/3
f 214/3/3 208/3/3 207/3/3
f 214/2/3 207/2/3 206/2/3
f 215/3/3 208/3/3 214/3/3
f 216/3/3 208/3/3 215/3/3
f 217/2/3 210/2/3 209/2/3
f 217/3/3 208/3/3 216/3/3
f 217/2/3 209/2/3 208/2/3
f 218/2/3 210/2/3 217/2/3
f 219/3/3 211/3/3 210/3/3
f 219/2/3 210/2/3 218/2/3
f 219/3/3 213/3/3 212/3/3
f 219/3/3 212/3/3 211/3/3
f 220/2/3 205/2/3 213/2/3
f 220/3/3 213/3/3 219/3/3
f 221/2/3 205/2/3 220/2/3
f 222/3/3 216/3/3 215/3/3
f 222/2/3 215/2/3 214/2/3
f 223/3/3 216/3/3 222/3/3
f 224/3/3 216/3/3 223/3/3
f 225/2/3 218/2/3 217/2/3
f 225/3/3 216/3/3 224/3/3
f 225/2/3 217/2/3 216/2/3
f 226/3/3 224/3/3 223/3/3
f 226/2/3 223/2/3 222/2/3
f 227/2/3 225/2/3 224/2/3
f 227/3/3 224/3/3 226/3/3
f 228/2/3 218/2/3 225/2/3
f 228/2/3 225/2/3 227/2/3
f 228/2/3 227/2/3 226/2/3
f 228/3/3 221/3/3 220/3/3
f 228/3/3 220/3/3 219/3/3
f 228/3/3 219/3/3 218/3/3
f 229/3/3 221/3/3 228/3/3
f 230/3/3 221/3/3 229/3/3
f 231/2/3 205/2/3 221/2/3
f 231/3/3 221/3/3 230/3/3
f 232/2/3 222/2/3 214/2/3
f 232/2/3 214/2/3 206/2/3
f 232/2/3 226/2/3 222/2/3
f 232/2/3 229/2/3 228/2/3
f 232/2/3 228/2/3 226/2/3
f 232/2/3 206/2/3 200/2/3
f 233/2/3 229/2/3 232/2/3
f 234/3/3 230/3/3 229/3/3
f 234/2/3 229/2/3 233/2/3
f 235/3/3 230/3/3 234/3/3
f 236/3/3 230/3/3 235/3/3
f 237/2/3 231/2/3 230/2/3
f 237/3/3 230/3/3 236/3/3
f 238/2/3 232/2/3 200/2/3
f 239/3/3 233/3/3 232/3/3
f 239/2/3 232/2/3 238/2/3
f 240/2/3 234/2/3 233/2/3
f 240/3/3 233/3/3 239/3/3
f 240/2/3 235/2/3 234/2/3
f 241/2/3 235/2/3 240/2/3
f 242/3/3 236/3/3 235/3/3
f 242/2/3 235/2/3 241/2/3
f 243/2/3 237/2/3 236/2/3
f 243/3/3 236/3/3 242/3/3
f 244/2/3 205/2/3 231/2/3
f 244/2/3 237/2/3 243/2/3
f 244/2/3 231/2/3 237/2/3
f 245/2/3 205/2/3 244/2/3
f 246/2/3 243/2/3 242/2/3
f 246/2/3 242/2/3 241/2/3
f 246/2/3 244/2/3 243/2/3
f 247/3/3 245/3/3 244/3/3
f 247/2/3 244/2/3 246/2/3
f 248/2/3 205/2/3 245/2/3
f 248/3/3 245/3/3 247/3/3
f 249/2/3 205/2/3 248/2/3
f 250/2/3 246/2/3 241/2/3
f 251/2/3 246/2/3 250/2/3
f 252/2/3 238/2/3 200/2/3
f 252/3/3 241/3/3 240/3/3
f 252/3/3 240/3/3 239/3/3
f 252/3/3 239/3/3 238/3/3
f 253/3/3 241/3/3 252/3/3
f 254/3/3 241/3/3 253/3/3
f 255/2/3 250/2/3 241/2/3
f 255/3/3 241/3/3 254/3/3
f 256/2/3 250/2/3 255/2/3
f 257/3/3 251/3/3 250/3/3
f 257/2/3 250/2/3 256/2/3
f 258/2/3 246/2/3 251/2/3
f 258/3/3 251/3/3 257/3/3
f 259/2/3 246/2/3 258/2/3
f 260/3/3 254/3/3 253/3/3
f 260/2/3 253/2/3 252/2/3
f 261/2/3 256/2/3 255/2/3
f 261/3/3 254/3/3 260/3/3
f 261/2/3 255/2/3 254/2/3
f 262/2/3 256/2/3 261/2/3
f 263/3/3 257/3/3 256/3/3
f 263/2/3 256/2/3 262/2/3
f 263/3/3 259/3/3 258/3/3
f 263/3/3 258/3/3 257/3/3
f 264/3/3 247/3/3 246/3/3
f 264/2/3 246/2/3 259/2/3
f 264/3/3 249/3/3 248/3/3
f 264/3/3 248/3/3 247/3/3
f 265/3/3 249/3/3 264/3/3
f 266/3/3 249/3/3 265/3/3
f 267/3/3 249/3/3 266/3/3
f 268/2/3 262/2/3 261/2/3
f 268/2/3 260/2/3 252/2/3
f 268/2/3 261/2/3 260/2/3
f 268/2/3 252/2/3 200/2/3
f 269/2/3 262/2/3 268/2/3
f 270/3/3 263/3/3 262/3/3
f 270/2/3 262/2/3 269/2/3
f 271/3/3 259/3/3 263/3/3
f 271/3/3 263/3/3 270/3/3
f 272/3/3 259/3/3 271/3/3
f 273/3/3 266/3/3 265/3/3
f 273/2/3 265/2/3 264/2/3
f 274/2/3 267/2/3 266/2/3
f 274/3/3 266/3/3 273/3/3
f 275/3/3 259/3/3 272/3/3
f 276/2/3 273/2/3 264/2/3
f 276/3/3 259/3/3 275/3/3
f 276/2/3 274/2/3 273/2/3
f 276/2/3 264/2/3 259/2/3
f 277/2/3 276/2/3 275/2/3
f 277/2/3 274/2/3 276/2/3
f 278/2/3 274/2/3 277/2/3
f 279/2/3 277/2/3 275/2/3
f 280/3/3 278/3/3 277/3/3
f 280/2/3 277/2/3 279/2/3
f 281/2/3 274/2/3 278/2/3
f 281/3/3 278/3/3 280/3/3
f 282/2/3 274/2/3 281/2/3
f 283/2/3 279/2/3 275/2/3
f 284/3/3 280/3/3 279/3/3
f 284/2/3 279/2/3 283/2/3
f 284/3/3 281/3/3 280/3/3
f 284/3/3 282/3/3 281/3/3
f 285/2/3 274/2/3 282/2/3
f 285/3/3 282/3/3 284/3/3
f 286/2/3 274/2/3 285/2/3
f 287/2/3 283/2/3 275/2/3
f 287/3/3 284/3/3 283/3/3
f 287/3/3 286/3/3 285/3/3
f 287/3/3 285/3/3 284/3/3
f 288/3/3 286/3/3 287/3/3
f 289/3/3 286/3/3 288/3/3
f 290/2/3 274/2/3 286/2/3
f 290/3/3 286/3/3 289/3/3
f 291/3/3 289/3/3 288/3/3
f 291/2/3 288/2/3 287/2/3
f 292/3/3 289/3/3 291/3/3
f 293/3/3 289/3/3 292/3/3
f 294/2/3 290/2/3 289/2/3
f 294/3/3 289/3/3 293/3/3
f 295/3/3 293/3/3 292/3/3
f 295/2/3 292/2/3 291/2/3
f 296/2/3 294/2/3 293/2/3
f 296/3/3 293/3/3 295/3/3
f 297/2/3 274/2/3 290/2/3
f 297/2/3 294/2/3 296/2/3
f 297/2/3 296/2/3 295/2/3
f 297/2/3 290/2/3 294/2/3
f 298/2/3 267/2/3 274/2/3
f 298/2/3 274/2/3 297/2/3
f 299/2/3 297/2/3 295/2/3
f 299/2/3 295/2/3 291/2/3
f 299/2/3 287/2/3 275/2/3
f 299/2/3 291/2/3 287/2/3
f 300/2/3 297/2/3 299/2/3
f 301/2/3 297/2/3 300/2/3
f 302/3/3 298/3/3 297/3/3
f 302/2/3 297/2/3 301/2/3
f 303/2/3 301/2/3 300/2/3
f 303/3/3 300/3/3 299/3/3
f 304/2/3 301/2/3 303/2/3
f 305/3/3 302/3/3 301/3/3
f 305/2/3 301/2/3 304/2/3
f 306/3/3 298/3/3 302/3/3
f 306/3/3 302/3/3 305/3/3
f 307/3/3 304/3/3 303/3/3
f 307/3/3 303/3/3 299/3/3
f 308/2/3 305/2/3 304/2/3
f 308/3/3 304/3/3 307/3/3
f 308/2/3 306/2/3 305/2/3
f 309/3/3 298/3/3 306/3/3
f 309/2/3 306/2/3 308/2/3
f 310/3/3 298/3/3 309/3/3
f 311/3/3 307/3/3 299/3/3
f 312/2/3 308/2/3 307/2/3
f 312/3/3 307/3/3 311/3/3
f 312/2/3 309/2/3 308/2/3
f 312/2/3 310/2/3 309/2/3
f 313/2/3 310/2/3 312/2/3
f 314/4/4 315/4/4 316/4/4
f 316/4/4 315/4/4 317/4/4
f 317/4/4 315/4/4 318/4/4
f 318/4/4 315/4/4 319/4/4
f 322/4/5 321/4/5 320/4/5
f 323/4/5 321/4/5 322/4/5
f 326/4/5 325/4/5 324/4/5
f 327/4/5 325/4/5 326/4/5
f 330/1/5 329/1/5 328/1/5
f 331/1/5 330/1/5 328/1/5
f 332/1/5 331/1/5 328/1/5
f 333/1/5 331/1/5 332/1/5
f 334/1/5 331/1/5 333/1/5
f 335/1/5 331/1/5 334/1/5
f 336/1/5 331/1/5 335/1/5
f 337/1/5 331/1/5 336/1/5
f 338/1/5 331/1/5 337/1/5
f 339/1/5 331/1/5 338/1/5
f 340/1/6 341/1/6 342/1/6
f 340/1/6 342/1/6 343/1/6
f 343/1/6 342/1/6 344/1/6
f 344/1/6 342/1/6 345/1/6
f 345/1/6 342/1/6 346/1/6
f 347/1/6 348/1/6 349/1/6
f 349/1/6 348/1/6 350/1/6
f 350/1/6 348/1/6 351/1/6
f 351/1/6 348/1/6 352/1/6
f 353/4/6 354/4/6 355/4/6
f 355/4/6 354/4/6 356/4/6
