# MagicaVoxel @ Ephtracy

# group
g Manager

# material
mtllib Manager.mtl
usemtl palette

# normals
vn -1 0 0
vn 1 0 0
vn 0 0 1
vn 0 0 -1
vn 0 -1 0
vn 0 1 0

# texcoords
vt 0.0605469 0.5
vt 0.0683594 0.5
vt 0.373047 0.5
vt 0.537109 0.5
vt 0.841797 0.5
vt 0.958984 0.5
vt 0.982422 0.5
vt 0.990234 0.5
vt 0.994141 0.5

# verts
v -9 14 0.5
v -9 14 -2.5
v -9 16 0.5
v -9 16 -2.5
v -9 24 0.5
v -9 24 -2.5
v -8 24 0.5
v -8 24 -2.5
v -8 25 0.5
v -8 25 -2.5
v -6 15 1.5
v -6 15 -4.5
v -6 23 0.5
v -6 23 -2.5
v -6 25 0.5
v -6 25 -2.5
v -6 26 1.5
v -6 26 -4.5
v -5 0 4.5
v -5 0 -3.5
v -5 1 4.5
v -5 1 1.5
v -5 2 1.5
v -5 2 0.5
v -5 2 -0.5
v -5 2 -1.5
v -5 2 -3.5
v -5 14 0.5
v -5 14 -0.5
v -5 14 -1.5
v -5 15 2.5
v -5 15 1.5
v -5 26 2.5
v -5 26 1.5
v -4 1 4.5
v -4 1 1.5
v -4 2 4.5
v -4 2 1.5
v -4 2 0.5
v -4 2 -1.5
v -4 2 -2.5
v -4 14 0.5
v -4 14 -0.5
v -4 14 -1.5
v -4 15 1.5
v -4 15 -1.5
v -4 15 -2.5
v -3 27 0.5
v -3 27 -3.5
v -3 28 1.5
v -3 28 0.5
v -3 30 1.5
v -3 30 -3.5
v -3 33 1.5
v -3 33 -3.5
v -2 13 -2.5
v -2 13 -3.5
v -2 15 -2.5
v -2 15 -3.5
v -2 26 0.5
v -2 26 -2.5
v -2 27 1.5
v -2 27 0.5
v -2 27 -2.5
v -2 28 1.5
v -2 28 0.5
v -2 33 0.5
v -2 33 -2.5
v -2 34 0.5
v -2 34 -2.5
v -1 33 1.5
v -1 33 0.5
v -1 33 -2.5
v -1 33 -3.5
v -1 34 1.5
v -1 34 0.5
v -1 34 -1.5
v -1 34 -2.5
v -1 34 -3.5
v -1 35 0.5
v -1 35 -1.5
v 0 34 1.5
v 0 34 0.5
v 0 35 1.5
v 0 35 0.5
v 1 12 1.5
v 1 12 -0.5
v 1 12 -2.5
v 1 13 1.5
v 1 13 0.5
v 1 13 -0.5
v 1 13 -1.5
v 1 13 -2.5
v 2 0 4.5
v 2 0 -3.5
v 2 1 4.5
v 2 1 1.5
v 2 2 1.5
v 2 2 0.5
v 2 2 -0.5
v 2 2 -2.5
v 2 2 -3.5
v 2 11 1.5
v 2 11 0.5
v 2 11 -0.5
v 2 12 1.5
v 2 12 0.5
v 2 12 -0.5
v 2 12 -2.5
v 3 1 4.5
v 3 1 1.5
v 3 2 4.5
v 3 2 1.5
v 3 2 0.5
v 3 11 1.5
v 3 11 0.5
v 7 14 0.5
v 7 14 -2.5
v 7 16 0.5
v 7 16 -2.5
v 7 23 0.5
v 7 23 -2.5
v -7 14 0.5
v -7 14 -2.5
v -7 16 0.5
v -7 16 -2.5
v -7 23 0.5
v -7 23 -2.5
v -3 1 4.5
v -3 1 1.5
v -3 2 4.5
v -3 2 1.5
v -3 2 0.5
v -3 11 1.5
v -3 11 0.5
v -2 0 4.5
v -2 0 -3.5
v -2 1 4.5
v -2 1 1.5
v -2 2 1.5
v -2 2 0.5
v -2 2 -0.5
v -2 2 -2.5
v -2 2 -3.5
v -2 11 1.5
v -2 11 0.5
v -2 11 -0.5
v -2 12 1.5
v -2 12 0.5
v -2 12 -0.5
v -2 12 -2.5
v -1 12 1.5
v -1 12 -0.5
v -1 12 -2.5
v -1 13 1.5
v -1 13 0.5
v -1 13 -0.5
v -1 13 -1.5
v -1 13 -2.5
v 1 33 -2.5
v 1 33 -3.5
v 1 34 1.5
v 1 34 -1.5
v 1 34 -2.5
v 1 34 -3.5
v 1 35 1.5
v 1 35 -1.5
v 2 13 -2.5
v 2 13 -3.5
v 2 15 -2.5
v 2 15 -3.5
v 2 26 0.5
v 2 26 -2.5
v 2 27 1.5
v 2 27 0.5
v 2 27 -2.5
v 2 28 1.5
v 2 28 0.5
v 2 33 1.5
v 2 33 -2.5
v 2 34 1.5
v 2 34 -2.5
v 3 27 0.5
v 3 27 -3.5
v 3 28 1.5
v 3 28 0.5
v 3 30 1.5
v 3 30 -3.5
v 3 33 1.5
v 3 33 -3.5
v 4 1 4.5
v 4 1 1.5
v 4 2 4.5
v 4 2 1.5
v 4 2 0.5
v 4 2 -1.5
v 4 2 -2.5
v 4 14 0.5
v 4 14 -0.5
v 4 14 -1.5
v 4 15 1.5
v 4 15 -1.5
v 4 15 -2.5
v 5 0 4.5
v 5 0 -3.5
v 5 1 4.5
v 5 1 1.5
v 5 2 1.5
v 5 2 0.5
v 5 2 -0.5
v 5 2 -1.5
v 5 2 -3.5
v 5 14 0.5
v 5 14 -0.5
v 5 14 -1.5
v 5 15 2.5
v 5 15 1.5
v 5 26 2.5
v 5 26 1.5
v 6 15 1.5
v 6 15 -4.5
v 6 23 0.5
v 6 23 -2.5
v 6 25 0.5
v 6 25 -2.5
v 6 26 1.5
v 6 26 -4.5
v 8 24 0.5
v 8 24 -2.5
v 8 25 0.5
v 8 25 -2.5
v 9 14 0.5
v 9 14 -2.5
v 9 16 0.5
v 9 16 -2.5
v 9 24 0.5
v 9 24 -2.5
v -5 0 4.5
v -5 1 4.5
v -4 1 4.5
v -4 2 4.5
v -3 1 4.5
v -3 2 4.5
v -2 0 4.5
v -2 1 4.5
v 2 0 4.5
v 2 1 4.5
v 3 1 4.5
v 3 2 4.5
v 4 1 4.5
v 4 2 4.5
v 5 0 4.5
v 5 1 4.5
v -5 15 2.5
v -5 26 2.5
v -3 25 2.5
v -3 26 2.5
v -2 23 2.5
v -2 25 2.5
v -1 21 2.5
v -1 23 2.5
v 1 21 2.5
v 1 23 2.5
v 2 23 2.5
v 2 25 2.5
v 3 25 2.5
v 3 26 2.5
v 5 15 2.5
v 5 26 2.5
v -6 15 1.5
v -6 26 1.5
v -5 1 1.5
v -5 2 1.5
v -5 15 1.5
v -5 26 1.5
v -4 1 1.5
v -4 2 1.5
v -4 15 1.5
v -3 1 1.5
v -3 2 1.5
v -3 11 1.5
v -3 15 1.5
v -3 28 1.5
v -3 30 1.5
v -3 33 1.5
v -2 1 1.5
v -2 2 1.5
v -2 11 1.5
v -2 12 1.5
v -2 15 1.5
v -2 27 1.5
v -2 28 1.5
v -2 30 1.5
v -2 31 1.5
v -2 32 1.5
v -1 12 1.5
v -1 13 1.5
v -1 15 1.5
v -1 28 1.5
v -1 29 1.5
v -1 30 1.5
v -1 31 1.5
v -1 33 1.5
v -1 34 1.5
v 0 34 1.5
v 0 35 1.5
v 1 12 1.5
v 1 13 1.5
v 1 15 1.5
v 1 28 1.5
v 1 29 1.5
v 1 30 1.5
v 1 31 1.5
v 1 34 1.5
v 1 35 1.5
v 2 1 1.5
v 2 2 1.5
v 2 11 1.5
v 2 12 1.5
v 2 15 1.5
v 2 27 1.5
v 2 28 1.5
v 2 30 1.5
v 2 31 1.5
v 2 32 1.5
v 2 33 1.5
v 2 34 1.5
v 3 1 1.5
v 3 2 1.5
v 3 11 1.5
v 3 15 1.5
v 3 28 1.5
v 3 30 1.5
v 3 33 1.5
v 4 1 1.5
v 4 2 1.5
v 4 15 1.5
v 5 1 1.5
v 5 2 1.5
v 5 15 1.5
v 5 26 1.5
v 6 15 1.5
v 6 26 1.5
v -9 14 0.5
v -9 16 0.5
v -9 24 0.5
v -8 24 0.5
v -8 25 0.5
v -7 14 0.5
v -7 16 0.5
v -7 23 0.5
v -6 23 0.5
v -6 25 0.5
v -5 2 0.5
v -5 14 0.5
v -4 2 0.5
v -4 14 0.5
v -3 2 0.5
v -3 11 0.5
v -3 27 0.5
v -3 28 0.5
v -2 2 0.5
v -2 11 0.5
v -2 26 0.5
v -2 27 0.5
v -2 28 0.5
v -2 33 0.5
v -2 34 0.5
v -1 33 0.5
v -1 34 0.5
v -1 35 0.5
v 0 34 0.5
v 0 35 0.5
v 2 2 0.5
v 2 11 0.5
v 2 26 0.5
v 2 27 0.5
v 2 28 0.5
v 3 2 0.5
v 3 11 0.5
v 3 27 0.5
v 3 28 0.5
v 4 2 0.5
v 4 14 0.5
v 5 2 0.5
v 5 14 0.5
v 6 23 0.5
v 6 25 0.5
v 7 14 0.5
v 7 16 0.5
v 7 23 0.5
v 8 24 0.5
v 8 25 0.5
v 9 14 0.5
v 9 16 0.5
v 9 24 0.5
v -5 2 -1.5
v -5 14 -1.5
v -4 2 -1.5
v -4 14 -1.5
v -1 34 -1.5
v -1 35 -1.5
v 1 34 -1.5
v 1 35 -1.5
v 4 2 -1.5
v 4 14 -1.5
v 5 2 -1.5
v 5 14 -1.5
v -9 14 -2.5
v -9 16 -2.5
v -9 24 -2.5
v -8 24 -2.5
v -8 25 -2.5
v -7 14 -2.5
v -7 16 -2.5
v -7 23 -2.5
v -6 23 -2.5
v -6 25 -2.5
v -4 2 -2.5
v -4 15 -2.5
v -3 2 -2.5
v -3 15 -2.5
v -2 2 -2.5
v -2 12 -2.5
v -2 13 -2.5
v -2 15 -2.5
v -2 26 -2.5
v -2 27 -2.5
v -2 33 -2.5
v -2 34 -2.5
v -1 12 -2.5
v -1 13 -2.5
v -1 33 -2.5
v -1 34 -2.5
v 1 12 -2.5
v 1 13 -2.5
v 1 33 -2.5
v 1 34 -2.5
v 2 2 -2.5
v 2 12 -2.5
v 2 13 -2.5
v 2 15 -2.5
v 2 26 -2.5
v 2 27 -2.5
v 2 33 -2.5
v 2 34 -2.5
v 3 2 -2.5
v 3 15 -2.5
v 4 2 -2.5
v 4 15 -2.5
v 6 23 -2.5
v 6 25 -2.5
v 7 14 -2.5
v 7 16 -2.5
v 7 23 -2.5
v 8 24 -2.5
v 8 25 -2.5
v 9 14 -2.5
v 9 16 -2.5
v 9 24 -2.5
v -5 0 -3.5
v -5 2 -3.5
v -3 27 -3.5
v -3 30 -3.5
v -3 33 -3.5
v -2 0 -3.5
v -2 2 -3.5
v -2 13 -3.5
v -2 15 -3.5
v -1 13 -3.5
v -1 15 -3.5
v -1 33 -3.5
v -1 34 -3.5
v 1 13 -3.5
v 1 15 -3.5
v 1 33 -3.5
v 1 34 -3.5
v 2 0 -3.5
v 2 2 -3.5
v 2 13 -3.5
v 2 15 -3.5
v 3 27 -3.5
v 3 30 -3.5
v 3 33 -3.5
v 5 0 -3.5
v 5 2 -3.5
v -6 15 -4.5
v -6 26 -4.5
v 6 15 -4.5
v 6 26 -4.5
v -5 0 4.5
v -2 0 4.5
v 2 0 4.5
v 5 0 4.5
v -4 0 3.5
v -3 0 3.5
v 3 0 3.5
v 4 0 3.5
v -4 0 -2.5
v -3 0 -2.5
v 3 0 -2.5
v 4 0 -2.5
v -5 0 -3.5
v -2 0 -3.5
v 2 0 -3.5
v 5 0 -3.5
v -3 11 1.5
v -2 11 1.5
v 2 11 1.5
v 3 11 1.5
v -3 11 0.5
v -2 11 0.5
v 2 11 0.5
v 3 11 0.5
v -2 12 1.5
v -1 12 1.5
v 1 12 1.5
v 2 12 1.5
v -2 12 0.5
v 2 12 0.5
v -2 12 -0.5
v -1 12 -0.5
v 1 12 -0.5
v 2 12 -0.5
v -2 12 -2.5
v -1 12 -2.5
v 1 12 -2.5
v 2 12 -2.5
v -1 13 1.5
v 1 13 1.5
v -1 13 0.5
v 1 13 0.5
v -1 13 -0.5
v 1 13 -0.5
v -1 13 -1.5
v 1 13 -1.5
v -2 13 -2.5
v -1 13 -2.5
v 1 13 -2.5
v 2 13 -2.5
v -2 13 -3.5
v -1 13 -3.5
v 1 13 -3.5
v 2 13 -3.5
v -9 14 0.5
v -7 14 0.5
v 7 14 0.5
v 9 14 0.5
v -9 14 -2.5
v -7 14 -2.5
v 7 14 -2.5
v 9 14 -2.5
v -5 15 2.5
v 5 15 2.5
v -6 15 1.5
v -5 15 1.5
v -4 15 1.5
v -3 15 1.5
v -2 15 1.5
v -1 15 1.5
v 1 15 1.5
v 2 15 1.5
v 3 15 1.5
v 4 15 1.5
v 5 15 1.5
v 6 15 1.5
v -4 15 -1.5
v 4 15 -1.5
v -4 15 -2.5
v -3 15 -2.5
v -2 15 -2.5
v 2 15 -2.5
v 3 15 -2.5
v 4 15 -2.5
v -2 15 -3.5
v -1 15 -3.5
v 1 15 -3.5
v 2 15 -3.5
v -6 15 -4.5
v 6 15 -4.5
v -7 23 0.5
v -6 23 0.5
v 6 23 0.5
v 7 23 0.5
v -7 23 -2.5
v -6 23 -2.5
v 6 23 -2.5
v 7 23 -2.5
v -2 27 1.5
v 2 27 1.5
v -3 27 0.5
v -2 27 0.5
v 2 27 0.5
v 3 27 0.5
v -2 27 -2.5
v 2 27 -2.5
v -3 27 -3.5
v 3 27 -3.5
v -3 28 1.5
v -2 28 1.5
v 2 28 1.5
v 3 28 1.5
v -3 28 0.5
v -2 28 0.5
v 2 28 0.5
v 3 28 0.5
v -5 1 4.5
v -4 1 4.5
v -3 1 4.5
v -2 1 4.5
v 2 1 4.5
v 3 1 4.5
v 4 1 4.5
v 5 1 4.5
v -5 1 1.5
v -4 1 1.5
v -3 1 1.5
v -2 1 1.5
v 2 1 1.5
v 3 1 1.5
v 4 1 1.5
v 5 1 1.5
v -4 2 4.5
v -3 2 4.5
v 3 2 4.5
v 4 2 4.5
v -5 2 1.5
v -4 2 1.5
v -3 2 1.5
v -2 2 1.5
v 2 2 1.5
v 3 2 1.5
v 4 2 1.5
v 5 2 1.5
v -5 2 0.5
v -4 2 0.5
v -3 2 0.5
v -2 2 0.5
v 2 2 0.5
v 3 2 0.5
v 4 2 0.5
v 5 2 0.5
v -5 2 -1.5
v -4 2 -1.5
v 4 2 -1.5
v 5 2 -1.5
v -4 2 -2.5
v -3 2 -2.5
v -2 2 -2.5
v 2 2 -2.5
v 3 2 -2.5
v 4 2 -2.5
v -5 2 -3.5
v -2 2 -3.5
v 2 2 -3.5
v 5 2 -3.5
v -5 14 0.5
v -4 14 0.5
v 4 14 0.5
v 5 14 0.5
v -5 14 -0.5
v -4 14 -0.5
v 4 14 -0.5
v 5 14 -0.5
v -5 14 -1.5
v -4 14 -1.5
v 4 14 -1.5
v 5 14 -1.5
v -9 24 0.5
v -8 24 0.5
v 8 24 0.5
v 9 24 0.5
v -9 24 -2.5
v -8 24 -2.5
v 8 24 -2.5
v 9 24 -2.5
v -8 25 0.5
v -6 25 0.5
v 6 25 0.5
v 8 25 0.5
v -8 25 -2.5
v -6 25 -2.5
v 6 25 -2.5
v 8 25 -2.5
v -5 26 2.5
v -3 26 2.5
v 3 26 2.5
v 5 26 2.5
v -6 26 1.5
v -5 26 1.5
v 5 26 1.5
v 6 26 1.5
v -3 26 0.5
v -2 26 0.5
v 2 26 0.5
v 3 26 0.5
v -2 26 -2.5
v 2 26 -2.5
v -6 26 -4.5
v 6 26 -4.5
v -3 33 1.5
v -1 33 1.5
v 2 33 1.5
v 3 33 1.5
v -2 33 0.5
v -1 33 0.5
v -2 33 -2.5
v -1 33 -2.5
v 1 33 -2.5
v 2 33 -2.5
v -3 33 -3.5
v -1 33 -3.5
v 1 33 -3.5
v 3 33 -3.5
v -1 34 1.5
v 0 34 1.5
v 1 34 1.5
v 2 34 1.5
v -2 34 0.5
v -1 34 0.5
v 0 34 0.5
v -1 34 -1.5
v 1 34 -1.5
v -2 34 -2.5
v -1 34 -2.5
v 1 34 -2.5
v 2 34 -2.5
v -1 34 -3.5
v 1 34 -3.5
v 0 35 1.5
v 1 35 1.5
v -1 35 0.5
v 0 35 0.5
v -1 35 -1.5
v 1 35 -1.5

# faces
f 3/1/1 2/1/1 1/1/1
f 4/1/1 2/1/1 3/1/1
f 5/8/1 4/8/1 3/8/1
f 6/8/1 4/8/1 5/8/1
f 9/8/1 8/8/1 7/8/1
f 10/8/1 8/8/1 9/8/1
f 13/8/1 12/8/1 11/8/1
f 14/8/1 12/8/1 13/8/1
f 15/8/1 13/8/1 11/8/1
f 16/8/1 12/8/1 14/8/1
f 17/8/1 15/8/1 11/8/1
f 17/8/1 16/8/1 15/8/1
f 18/8/1 12/8/1 16/8/1
f 18/8/1 16/8/1 17/8/1
f 21/9/1 20/9/1 19/9/1
f 22/9/1 20/9/1 21/9/1
f 23/9/1 20/9/1 22/9/1
f 24/9/1 20/9/1 23/9/1
f 25/9/1 20/9/1 24/9/1
f 26/9/1 20/9/1 25/9/1
f 27/9/1 20/9/1 26/9/1
f 28/8/1 25/8/1 24/8/1
f 29/3/1 26/3/1 25/3/1
f 29/8/1 25/8/1 28/8/1
f 30/3/1 26/3/1 29/3/1
f 33/8/1 32/8/1 31/8/1
f 34/8/1 32/8/1 33/8/1
f 37/9/1 36/9/1 35/9/1
f 38/9/1 36/9/1 37/9/1
f 42/3/1 39/3/1 38/3/1
f 44/8/1 41/8/1 40/8/1
f 45/3/1 43/3/1 42/3/1
f 45/3/1 44/3/1 43/3/1
f 45/3/1 42/3/1 38/3/1
f 46/8/1 41/8/1 44/8/1
f 46/3/1 44/3/1 45/3/1
f 47/8/1 41/8/1 46/8/1
f 51/1/1 49/1/1 48/1/1
f 52/1/1 51/1/1 50/1/1
f 53/1/1 49/1/1 51/1/1
f 53/1/1 51/1/1 52/1/1
f 54/8/1 53/8/1 52/8/1
f 55/8/1 53/8/1 54/8/1
f 58/8/1 57/8/1 56/8/1
f 59/8/1 57/8/1 58/8/1
f 63/1/1 61/1/1 60/1/1
f 64/1/1 61/1/1 63/1/1
f 65/1/1 63/1/1 62/1/1
f 66/1/1 63/1/1 65/1/1
f 69/8/1 68/8/1 67/8/1
f 70/8/1 68/8/1 69/8/1
f 75/8/1 72/8/1 71/8/1
f 76/8/1 72/8/1 75/8/1
f 78/8/1 74/8/1 73/8/1
f 79/8/1 74/8/1 78/8/1
f 80/8/1 77/8/1 76/8/1
f 81/8/1 77/8/1 80/8/1
f 84/8/1 83/8/1 82/8/1
f 85/8/1 83/8/1 84/8/1
f 89/3/1 87/3/1 86/3/1
f 90/3/1 87/3/1 89/3/1
f 91/8/1 88/8/1 87/8/1
f 91/3/1 87/3/1 90/3/1
f 92/8/1 88/8/1 91/8/1
f 93/8/1 88/8/1 92/8/1
f 96/9/1 95/9/1 94/9/1
f 97/9/1 95/9/1 96/9/1
f 98/9/1 95/9/1 97/9/1
f 99/9/1 95/9/1 98/9/1
f 100/9/1 95/9/1 99/9/1
f 101/9/1 95/9/1 100/9/1
f 102/9/1 95/9/1 101/9/1
f 104/8/1 100/8/1 99/8/1
f 105/3/1 101/3/1 100/3/1
f 105/8/1 100/8/1 104/8/1
f 106/8/1 104/8/1 103/8/1
f 107/3/1 105/3/1 104/3/1
f 107/8/1 104/8/1 106/8/1
f 108/3/1 101/3/1 105/3/1
f 108/3/1 105/3/1 107/3/1
f 109/3/1 101/3/1 108/3/1
f 112/9/1 111/9/1 110/9/1
f 113/9/1 111/9/1 112/9/1
f 115/3/1 114/3/1 113/3/1
f 116/3/1 114/3/1 115/3/1
f 119/1/1 118/1/1 117/1/1
f 120/1/1 118/1/1 119/1/1
f 121/8/1 120/8/1 119/8/1
f 122/8/1 120/8/1 121/8/1
f 123/1/2 124/1/2 125/1/2
f 125/1/2 124/1/2 126/1/2
f 125/8/2 126/8/2 127/8/2
f 127/8/2 126/8/2 128/8/2
f 129/9/2 130/9/2 131/9/2
f 131/9/2 130/9/2 132/9/2
f 132/3/2 133/3/2 134/3/2
f 134/3/2 133/3/2 135/3/2
f 136/9/2 137/9/2 138/9/2
f 138/9/2 137/9/2 139/9/2
f 139/9/2 137/9/2 140/9/2
f 140/9/2 137/9/2 141/9/2
f 141/9/2 137/9/2 142/9/2
f 142/9/2 137/9/2 143/9/2
f 143/9/2 137/9/2 144/9/2
f 141/8/2 142/8/2 146/8/2
f 142/3/2 143/3/2 147/3/2
f 146/8/2 142/8/2 147/8/2
f 145/8/2 146/8/2 148/8/2
f 146/3/2 147/3/2 149/3/2
f 148/8/2 146/8/2 149/8/2
f 147/3/2 143/3/2 150/3/2
f 149/3/2 147/3/2 150/3/2
f 150/3/2 143/3/2 151/3/2
f 152/3/2 153/3/2 155/3/2
f 155/3/2 153/3/2 156/3/2
f 153/8/2 154/8/2 157/8/2
f 156/3/2 153/3/2 157/3/2
f 157/8/2 154/8/2 158/8/2
f 158/8/2 154/8/2 159/8/2
f 160/8/2 161/8/2 164/8/2
f 164/8/2 161/8/2 165/8/2
f 162/8/2 163/8/2 166/8/2
f 166/8/2 163/8/2 167/8/2
f 168/8/2 169/8/2 170/8/2
f 170/8/2 169/8/2 171/8/2
f 172/1/2 173/1/2 175/1/2
f 175/1/2 173/1/2 176/1/2
f 174/1/2 175/1/2 177/1/2
f 177/1/2 175/1/2 178/1/2
f 179/8/2 180/8/2 181/8/2
f 181/8/2 180/8/2 182/8/2
f 183/1/2 184/1/2 186/1/2
f 185/1/2 186/1/2 187/1/2
f 186/1/2 184/1/2 188/1/2
f 187/1/2 186/1/2 188/1/2
f 187/8/2 188/8/2 189/8/2
f 189/8/2 188/8/2 190/8/2
f 191/9/2 192/9/2 193/9/2
f 193/9/2 192/9/2 194/9/2
f 194/3/2 195/3/2 198/3/2
f 196/8/2 197/8/2 200/8/2
f 198/3/2 199/3/2 201/3/2
f 199/3/2 200/3/2 201/3/2
f 194/3/2 198/3/2 201/3/2
f 200/8/2 197/8/2 202/8/2
f 201/3/2 200/3/2 202/3/2
f 202/8/2 197/8/2 203/8/2
f 204/9/2 205/9/2 206/9/2
f 206/9/2 205/9/2 207/9/2
f 207/9/2 205/9/2 208/9/2
f 208/9/2 205/9/2 209/9/2
f 209/9/2 205/9/2 210/9/2
f 210/9/2 205/9/2 211/9/2
f 211/9/2 205/9/2 212/9/2
f 209/8/2 210/8/2 213/8/2
f 210/3/2 211/3/2 214/3/2
f 213/8/2 210/8/2 214/8/2
f 214/3/2 211/3/2 215/3/2
f 216/8/2 217/8/2 218/8/2
f 218/8/2 217/8/2 219/8/2
f 220/8/2 221/8/2 222/8/2
f 222/8/2 221/8/2 223/8/2
f 220/8/2 222/8/2 224/8/2
f 223/8/2 221/8/2 225/8/2
f 220/8/2 224/8/2 226/8/2
f 224/8/2 225/8/2 226/8/2
f 225/8/2 221/8/2 227/8/2
f 226/8/2 225/8/2 227/8/2
f 228/8/2 229/8/2 230/8/2
f 230/8/2 229/8/2 231/8/2
f 232/1/2 233/1/2 234/1/2
f 234/1/2 233/1/2 235/1/2
f 234/8/2 235/8/2 236/8/2
f 236/8/2 235/8/2 237/8/2
f 240/9/3 239/9/3 238/9/3
f 242/9/3 240/9/3 238/9/3
f 242/9/3 241/9/3 240/9/3
f 243/9/3 241/9/3 242/9/3
f 244/9/3 242/9/3 238/9/3
f 245/9/3 242/9/3 244/9/3
f 248/9/3 247/9/3 246/9/3
f 250/9/3 248/9/3 246/9/3
f 250/9/3 249/9/3 248/9/3
f 251/9/3 249/9/3 250/9/3
f 252/9/3 250/9/3 246/9/3
f 253/9/3 250/9/3 252/9/3
f 256/8/3 255/8/3 254/8/3
f 257/8/3 255/8/3 256/8/3
f 258/8/3 256/8/3 254/8/3
f 259/2/3 257/2/3 256/2/3
f 259/8/3 256/8/3 258/8/3
f 260/8/3 258/8/3 254/8/3
f 261/2/3 259/2/3 258/2/3
f 261/8/3 258/8/3 260/8/3
f 262/8/3 260/8/3 254/8/3
f 262/2/3 261/2/3 260/2/3
f 263/2/3 259/2/3 261/2/3
f 263/2/3 261/2/3 262/2/3
f 264/8/3 263/8/3 262/8/3
f 264/2/3 259/2/3 263/2/3
f 265/2/3 257/2/3 259/2/3
f 265/2/3 259/2/3 264/2/3
f 266/8/3 265/8/3 264/8/3
f 266/2/3 257/2/3 265/2/3
f 267/2/3 257/2/3 266/2/3
f 268/8/3 264/8/3 262/8/3
f 268/8/3 262/8/3 254/8/3
f 268/8/3 267/8/3 266/8/3
f 268/8/3 266/8/3 264/8/3
f 269/8/3 267/8/3 268/8/3
f 274/8/3 271/8/3 270/8/3
f 275/8/3 271/8/3 274/8/3
f 276/9/3 273/9/3 272/9/3
f 277/9/3 273/9/3 276/9/3
f 280/3/3 278/3/3 277/3/3
f 281/3/3 278/3/3 280/3/3
f 282/3/3 278/3/3 281/3/3
f 286/9/3 280/9/3 279/9/3
f 287/9/3 280/9/3 286/9/3
f 288/8/3 282/8/3 281/8/3
f 289/8/3 282/8/3 288/8/3
f 290/8/3 282/8/3 289/8/3
f 292/1/3 284/1/3 283/1/3
f 293/8/3 285/8/3 284/8/3
f 293/1/3 284/1/3 292/1/3
f 294/8/3 285/8/3 293/8/3
f 295/8/3 285/8/3 294/8/3
f 296/3/3 290/3/3 289/3/3
f 297/3/3 290/3/3 296/3/3
f 298/3/3 290/3/3 297/3/3
f 299/1/3 292/1/3 291/1/3
f 299/1/3 293/1/3 292/1/3
f 300/1/3 293/1/3 299/1/3
f 301/4/3 294/4/3 293/4/3
f 301/1/3 293/1/3 300/1/3
f 302/1/3 295/1/3 294/1/3
f 302/4/3 294/4/3 301/4/3
f 303/8/3 285/8/3 295/8/3
f 305/8/3 304/8/3 303/8/3
f 308/8/3 298/8/3 297/8/3
f 309/8/3 298/8/3 308/8/3
f 310/5/3 300/5/3 299/5/3
f 310/1/3 299/1/3 291/1/3
f 311/1/3 301/1/3 300/1/3
f 311/5/3 300/5/3 310/5/3
f 311/1/3 302/1/3 301/1/3
f 312/1/3 302/1/3 311/1/3
f 313/1/3 295/1/3 302/1/3
f 313/1/3 302/1/3 312/1/3
f 314/8/3 306/8/3 305/8/3
f 314/8/3 305/8/3 303/8/3
f 315/8/3 306/8/3 314/8/3
f 319/3/3 309/3/3 308/3/3
f 319/3/3 308/3/3 307/3/3
f 320/3/3 309/3/3 319/3/3
f 321/1/3 312/1/3 311/1/3
f 321/1/3 310/1/3 291/1/3
f 321/1/3 311/1/3 310/1/3
f 322/1/3 312/1/3 321/1/3
f 323/4/3 313/4/3 312/4/3
f 323/1/3 312/1/3 322/1/3
f 324/1/3 295/1/3 313/1/3
f 324/4/3 313/4/3 323/4/3
f 325/8/3 303/8/3 295/8/3
f 325/1/3 295/1/3 324/1/3
f 325/8/3 314/8/3 303/8/3
f 326/8/3 314/8/3 325/8/3
f 327/8/3 314/8/3 326/8/3
f 328/9/3 317/9/3 316/9/3
f 329/9/3 317/9/3 328/9/3
f 330/8/3 320/8/3 319/8/3
f 330/8/3 319/8/3 318/8/3
f 331/8/3 320/8/3 330/8/3
f 332/1/3 323/1/3 322/1/3
f 333/8/3 324/8/3 323/8/3
f 333/1/3 323/1/3 332/1/3
f 333/8/3 326/8/3 325/8/3
f 333/8/3 325/8/3 324/8/3
f 334/8/3 326/8/3 333/8/3
f 336/3/3 331/3/3 330/3/3
f 336/3/3 330/3/3 329/3/3
f 337/3/3 331/3/3 336/3/3
f 338/9/3 336/9/3 335/9/3
f 339/9/3 336/9/3 338/9/3
f 342/8/3 341/8/3 340/8/3
f 343/8/3 341/8/3 342/8/3
f 347/8/3 346/8/3 345/8/3
f 349/1/3 345/1/3 344/1/3
f 350/8/3 348/8/3 347/8/3
f 350/1/3 345/1/3 349/1/3
f 350/8/3 347/8/3 345/8/3
f 351/8/3 348/8/3 350/8/3
f 352/8/3 348/8/3 351/8/3
f 353/8/3 348/8/3 352/8/3
f 356/8/3 355/8/3 354/8/3
f 357/8/3 355/8/3 356/8/3
f 362/8/3 359/8/3 358/8/3
f 363/8/3 359/8/3 362/8/3
f 365/1/3 361/1/3 360/1/3
f 366/1/3 361/1/3 365/1/3
f 369/8/3 368/8/3 367/8/3
f 370/8/3 368/8/3 369/8/3
f 372/8/3 371/8/3 370/8/3
f 373/8/3 371/8/3 372/8/3
f 376/1/3 365/1/3 364/1/3
f 377/1/3 365/1/3 376/1/3
f 379/8/3 375/8/3 374/8/3
f 380/8/3 375/8/3 379/8/3
f 381/1/3 378/1/3 377/1/3
f 382/1/3 378/1/3 381/1/3
f 385/8/3 384/8/3 383/8/3
f 386/8/3 384/8/3 385/8/3
f 391/8/3 388/8/3 387/8/3
f 392/8/3 388/8/3 391/8/3
f 392/8/3 391/8/3 390/8/3
f 393/8/3 388/8/3 392/8/3
f 394/1/3 390/1/3 389/1/3
f 395/8/3 392/8/3 390/8/3
f 395/1/3 390/1/3 394/1/3
f 396/8/3 392/8/3 395/8/3
f 397/3/4 398/3/4 399/3/4
f 399/3/4 398/3/4 400/3/4
f 401/8/4 402/8/4 403/8/4
f 403/8/4 402/8/4 404/8/4
f 405/3/4 406/3/4 407/3/4
f 407/3/4 406/3/4 408/3/4
f 410/8/4 411/8/4 412/8/4
f 409/1/4 410/1/4 414/1/4
f 412/8/4 413/8/4 415/8/4
f 414/1/4 410/1/4 415/1/4
f 410/8/4 412/8/4 415/8/4
f 415/8/4 413/8/4 416/8/4
f 416/8/4 413/8/4 417/8/4
f 417/8/4 413/8/4 418/8/4
f 419/8/4 420/8/4 421/8/4
f 421/8/4 420/8/4 422/8/4
f 421/3/4 422/3/4 423/3/4
f 423/3/4 422/3/4 424/3/4
f 424/3/4 422/3/4 425/3/4
f 425/3/4 422/3/4 426/3/4
f 424/8/4 425/8/4 431/8/4
f 431/8/4 425/8/4 432/8/4
f 429/8/4 430/8/4 433/8/4
f 433/8/4 430/8/4 434/8/4
f 435/8/4 436/8/4 440/8/4
f 440/8/4 436/8/4 441/8/4
f 427/1/4 428/1/4 443/1/4
f 443/1/4 428/1/4 444/1/4
f 437/8/4 438/8/4 445/8/4
f 445/8/4 438/8/4 446/8/4
f 441/3/4 442/3/4 447/3/4
f 439/3/4 440/3/4 447/3/4
f 440/3/4 441/3/4 447/3/4
f 447/3/4 442/3/4 448/3/4
f 447/8/4 448/8/4 449/8/4
f 449/8/4 448/8/4 450/8/4
f 451/8/4 452/8/4 455/8/4
f 455/8/4 452/8/4 456/8/4
f 454/8/4 455/8/4 456/8/4
f 456/8/4 452/8/4 457/8/4
f 453/1/4 454/1/4 458/1/4
f 454/8/4 456/8/4 459/8/4
f 458/1/4 454/1/4 459/1/4
f 459/8/4 456/8/4 460/8/4
f 461/9/4 462/9/4 466/9/4
f 466/9/4 462/9/4 467/9/4
f 468/8/4 469/8/4 470/8/4
f 470/8/4 469/8/4 471/8/4
f 464/8/4 465/8/4 472/8/4
f 470/3/4 471/3/4 474/3/4
f 474/3/4 471/3/4 475/3/4
f 472/8/4 473/8/4 476/8/4
f 464/8/4 472/8/4 476/8/4
f 476/8/4 473/8/4 477/8/4
f 474/8/4 475/8/4 480/8/4
f 480/8/4 475/8/4 481/8/4
f 463/1/4 464/1/4 482/1/4
f 464/8/4 476/8/4 483/8/4
f 482/1/4 464/1/4 483/1/4
f 483/8/4 476/8/4 484/8/4
f 478/9/4 479/9/4 485/9/4
f 485/9/4 479/9/4 486/9/4
f 487/8/4 488/8/4 489/8/4
f 489/8/4 488/8/4 490/8/4
f 495/9/5 492/9/5 491/9/5
f 496/9/5 492/9/5 495/9/5
f 497/9/5 494/9/5 493/9/5
f 498/9/5 494/9/5 497/9/5
f 499/9/5 495/9/5 491/9/5
f 499/7/5 496/7/5 495/7/5
f 500/9/5 492/9/5 496/9/5
f 500/7/5 496/7/5 499/7/5
f 501/7/5 498/7/5 497/7/5
f 501/9/5 497/9/5 493/9/5
f 502/9/5 494/9/5 498/9/5
f 502/7/5 498/7/5 501/7/5
f 503/9/5 499/9/5 491/9/5
f 503/9/5 500/9/5 499/9/5
f 504/9/5 492/9/5 500/9/5
f 504/9/5 500/9/5 503/9/5
f 505/9/5 501/9/5 493/9/5
f 505/9/5 502/9/5 501/9/5
f 506/9/5 494/9/5 502/9/5
f 506/9/5 502/9/5 505/9/5
f 511/8/5 508/8/5 507/8/5
f 512/8/5 508/8/5 511/8/5
f 513/8/5 510/8/5 509/8/5
f 514/8/5 510/8/5 513/8/5
f 519/3/5 516/3/5 515/3/5
f 520/3/5 518/3/5 517/3/5
f 521/3/5 516/3/5 519/3/5
f 522/3/5 516/3/5 521/3/5
f 523/3/5 520/3/5 517/3/5
f 524/3/5 520/3/5 523/3/5
f 525/8/5 522/8/5 521/8/5
f 526/8/5 522/8/5 525/8/5
f 527/8/5 524/8/5 523/8/5
f 528/8/5 524/8/5 527/8/5
f 531/8/5 530/8/5 529/8/5
f 532/8/5 530/8/5 531/8/5
f 533/3/5 532/3/5 531/3/5
f 534/3/5 532/3/5 533/3/5
f 535/8/5 534/8/5 533/8/5
f 536/8/5 534/8/5 535/8/5
f 538/3/5 536/3/5 535/3/5
f 539/3/5 536/3/5 538/3/5
f 541/8/5 538/8/5 537/8/5
f 542/3/5 539/3/5 538/3/5
f 542/8/5 538/8/5 541/8/5
f 543/8/5 540/8/5 539/8/5
f 543/3/5 539/3/5 542/3/5
f 544/8/5 540/8/5 543/8/5
f 549/1/5 546/1/5 545/1/5
f 550/1/5 546/1/5 549/1/5
f 551/1/5 548/1/5 547/1/5
f 552/1/5 548/1/5 551/1/5
f 556/8/5 554/8/5 553/8/5
f 557/8/5 554/8/5 556/8/5
f 558/8/5 554/8/5 557/8/5
f 559/8/5 554/8/5 558/8/5
f 560/8/5 554/8/5 559/8/5
f 561/8/5 554/8/5 560/8/5
f 562/8/5 554/8/5 561/8/5
f 563/8/5 554/8/5 562/8/5
f 564/8/5 554/8/5 563/8/5
f 565/8/5 554/8/5 564/8/5
f 567/8/5 556/8/5 555/8/5
f 567/8/5 557/8/5 556/8/5
f 568/8/5 566/8/5 565/8/5
f 568/8/5 565/8/5 564/8/5
f 569/8/5 567/8/5 555/8/5
f 574/8/5 566/8/5 568/8/5
f 575/8/5 570/8/5 569/8/5
f 575/8/5 571/8/5 570/8/5
f 578/8/5 573/8/5 572/8/5
f 578/8/5 574/8/5 573/8/5
f 579/8/5 577/8/5 576/8/5
f 579/8/5 578/8/5 577/8/5
f 579/8/5 569/8/5 555/8/5
f 579/8/5 576/8/5 575/8/5
f 579/8/5 575/8/5 569/8/5
f 580/8/5 574/8/5 578/8/5
f 580/8/5 578/8/5 579/8/5
f 580/8/5 566/8/5 574/8/5
f 585/8/5 582/8/5 581/8/5
f 586/8/5 582/8/5 585/8/5
f 587/8/5 584/8/5 583/8/5
f 588/8/5 584/8/5 587/8/5
f 592/1/5 590/1/5 589/1/5
f 593/1/5 590/1/5 592/1/5
f 595/1/5 592/1/5 591/1/5
f 596/1/5 594/1/5 593/1/5
f 597/1/5 595/1/5 591/1/5
f 597/1/5 596/1/5 595/1/5
f 598/1/5 594/1/5 596/1/5
f 598/1/5 596/1/5 597/1/5
f 603/1/5 600/1/5 599/1/5
f 604/1/5 600/1/5 603/1/5
f 605/1/5 602/1/5 601/1/5
f 606/1/5 602/1/5 605/1/5
f 607/9/6 608/9/6 615/9/6
f 615/9/6 608/9/6 616/9/6
f 609/9/6 610/9/6 617/9/6
f 617/9/6 610/9/6 618/9/6
f 611/9/6 612/9/6 619/9/6
f 619/9/6 612/9/6 620/9/6
f 613/9/6 614/9/6 621/9/6
f 621/9/6 614/9/6 622/9/6
f 623/9/6 624/9/6 628/9/6
f 628/9/6 624/9/6 629/9/6
f 625/9/6 626/9/6 632/9/6
f 632/9/6 626/9/6 633/9/6
f 627/9/6 628/9/6 635/9/6
f 635/9/6 628/9/6 636/9/6
f 629/9/6 630/9/6 637/9/6
f 637/9/6 630/9/6 638/9/6
f 631/9/6 632/9/6 639/9/6
f 639/9/6 632/9/6 640/9/6
f 633/9/6 634/9/6 641/9/6
f 641/9/6 634/9/6 642/9/6
f 643/9/6 644/9/6 647/9/6
f 645/9/6 646/9/6 652/9/6
f 643/9/6 647/9/6 653/9/6
f 647/9/6 648/9/6 653/9/6
f 648/9/6 649/9/6 653/9/6
f 653/9/6 649/9/6 654/9/6
f 650/9/6 651/9/6 655/9/6
f 651/9/6 652/9/6 655/9/6
f 652/9/6 646/9/6 656/9/6
f 655/9/6 652/9/6 656/9/6
f 657/8/6 658/8/6 661/8/6
f 661/8/6 658/8/6 662/8/6
f 659/8/6 660/8/6 663/8/6
f 663/8/6 660/8/6 664/8/6
f 661/3/6 662/3/6 665/3/6
f 665/3/6 662/3/6 666/3/6
f 663/3/6 664/3/6 667/3/6
f 667/3/6 664/3/6 668/3/6
f 669/8/6 670/8/6 673/8/6
f 673/8/6 670/8/6 674/8/6
f 671/8/6 672/8/6 675/8/6
f 675/8/6 672/8/6 676/8/6
f 677/8/6 678/8/6 681/8/6
f 681/8/6 678/8/6 682/8/6
f 679/8/6 680/8/6 683/8/6
f 683/8/6 680/8/6 684/8/6
f 685/8/6 686/8/6 690/8/6
f 687/8/6 688/8/6 691/8/6
f 689/8/6 690/8/6 693/8/6
f 686/2/6 687/2/6 693/2/6
f 690/8/6 686/8/6 693/8/6
f 693/2/6 687/2/6 694/2/6
f 694/2/6 687/2/6 695/2/6
f 691/8/6 692/8/6 696/8/6
f 695/2/6 687/2/6 696/2/6
f 687/8/6 691/8/6 696/8/6
f 693/8/6 694/8/6 697/8/6
f 695/8/6 696/8/6 698/8/6
f 693/8/6 697/8/6 699/8/6
f 697/8/6 698/8/6 699/8/6
f 689/8/6 693/8/6 699/8/6
f 696/8/6 692/8/6 700/8/6
f 699/8/6 698/8/6 700/8/6
f 698/8/6 696/8/6 700/8/6
f 701/8/6 702/8/6 705/8/6
f 705/8/6 702/8/6 706/8/6
f 701/8/6 705/8/6 707/8/6
f 703/8/6 704/8/6 710/8/6
f 701/8/6 707/8/6 711/8/6
f 707/8/6 708/8/6 711/8/6
f 711/8/6 708/8/6 712/8/6
f 709/8/6 710/8/6 713/8/6
f 710/8/6 704/8/6 714/8/6
f 713/8/6 710/8/6 714/8/6
f 715/8/6 716/8/6 720/8/6
f 720/8/6 716/8/6 721/8/6
f 719/8/6 720/8/6 722/8/6
f 717/8/6 718/8/6 723/8/6
f 719/8/6 722/8/6 724/8/6
f 722/8/6 723/8/6 724/8/6
f 724/8/6 723/8/6 725/8/6
f 723/8/6 718/8/6 726/8/6
f 725/8/6 723/8/6 726/8/6
f 726/8/6 718/8/6 727/8/6
f 725/8/6 726/8/6 728/8/6
f 728/8/6 726/8/6 729/8/6
f 730/8/6 731/8/6 733/8/6
f 732/8/6 733/8/6 734/8/6
f 733/8/6 731/8/6 735/8/6
f 734/8/6 733/8/6 735/8/6
